<svg width="108" height="108" viewBox="0 0 108 108" fill="none" xmlns="http://www.w3.org/2000/svg">
<circle cx="54" cy="54" r="51" fill="#9B624A" stroke="#150E0B" stroke-width="6"/>
<path d="M28.2478 39.182V40.4268C28.2478 47.4672 28.2478 50.99 30.4361 53.1758C32.6219 55.3641 36.1446 55.3641 43.1851 55.3641C46.4812 55.2844 53.1433 56.6089 58.7099 60.7589C60.5855 62.0031 62.7633 62.7155 65.0115 62.8203C67.2598 62.9251 69.4944 62.4183 71.4776 61.354C73.4607 60.2896 75.1181 58.7074 76.2735 56.7759C77.4289 54.8444 78.0389 52.6357 78.0387 50.385V40.4268" fill="#5F2814"/>
<path d="M28.2478 39.182V40.4268C28.2478 47.4672 28.2478 50.99 30.4361 53.1758C32.6219 55.3641 36.1446 55.3641 43.1851 55.3641C46.4812 55.2844 53.1433 56.6089 58.7099 60.7589C60.5855 62.0031 62.7633 62.7155 65.0115 62.8203C67.2598 62.9251 69.4944 62.4183 71.4776 61.354C73.4607 60.2896 75.1181 58.7074 76.2735 56.7759C77.4289 54.8444 78.0389 52.6357 78.0387 50.385V40.4268" stroke="#150E0B" stroke-width="2" stroke-linecap="round" stroke-linejoin="round"/>
<path d="M65.591 52.8746C67.9027 52.8746 70.1687 52.2308 72.1352 51.0155C74.1016 49.8002 75.6908 48.0613 76.7246 45.9936C77.7584 43.926 78.196 41.6113 77.9884 39.309C77.7808 37.0066 76.9362 34.8075 75.5492 32.9582C70.2589 25.9128 63.1015 23 53.1433 23C43.1851 23 28.2478 30.1326 28.2478 39.1821C28.2478 40.8327 28.9035 42.4158 30.0707 43.583C31.2379 44.7502 32.821 45.4059 34.4717 45.4059H43.1851C46.4812 45.3238 53.1433 46.6507 58.7099 50.8008C60.7498 52.1535 63.1433 52.8749 65.591 52.8746Z" fill="#88482D" stroke="#150E0B" stroke-width="2" stroke-linecap="round" stroke-linejoin="round"/>
<path d="M69.3253 40.4268C69.3253 41.4172 68.9319 42.3671 68.2316 43.0674C67.5312 43.7677 66.5814 44.1611 65.591 44.1611C64.6006 44.1611 63.6508 43.7677 62.9504 43.0674C62.2501 42.3671 61.8567 41.4172 61.8567 40.4268C61.8567 39.4364 62.2501 38.4866 62.9504 37.7863C63.6508 37.0859 64.6006 36.6925 65.591 36.6925C66.5814 36.6925 67.5312 37.0859 68.2316 37.7863C68.9319 38.4866 69.3253 39.4364 69.3253 40.4268Z" fill="#DFD6B9" stroke="#150E0B" stroke-width="2" stroke-linecap="round" stroke-linejoin="round"/>
<path d="M37.0907 39.2518L50.2355 30.4089" stroke="#150E0C" stroke-width="2" stroke-linecap="round"/>
<path d="M43.7826 39.2518L56.9274 30.4089" stroke="#150E0C" stroke-width="2" stroke-linecap="round"/>
<path d="M51.6695 39.2518L64.8143 30.4089" stroke="#150E0C" stroke-width="2" stroke-linecap="round"/>
<mask id="path-9-outside-1_18_34" maskUnits="userSpaceOnUse" x="27" y="69.7813" width="53" height="13" fill="black">
<rect fill="white" x="27" y="69.7813" width="53" height="13"/>
<path d="M32.5758 78.8414V79.7813H29.3371V78.8414L30.1696 78.6803V73.0675L29.3371 72.9063V71.961H32.4899L34.6222 77.4127H34.6544L36.7169 71.961H39.8751V72.9063L39.0373 73.0675V78.6803L39.8751 78.8414V79.7813H36.6364V78.8414L37.5119 78.6803V77.1817L37.5387 73.6529L37.5065 73.6476L35.1701 79.6739H33.9831L31.5929 73.6959L31.5607 73.7013L31.652 77.0206V78.6803L32.5758 78.8414ZM46.6212 77.6437V79.7813H40.4337V78.8414L41.2663 78.6803V73.0675L40.4337 72.9063V71.961H46.5031V74.0719H45.2999L45.2301 73.1695H42.8346V75.1354H45.4826V76.3438H42.8346V78.5782H45.359L45.4289 77.6437H46.6212ZM50.9127 79.7813H47.4591V78.8414L48.3024 78.6642V73.089L47.4591 72.9063V71.961H50.8913C51.5931 71.961 52.209 72.124 52.7389 72.4498C53.2724 72.7757 53.6878 73.2286 53.985 73.8087C54.2858 74.3888 54.4362 75.053 54.4362 75.8014V75.9464C54.4362 76.6912 54.2894 77.35 53.9957 77.923C53.7021 78.503 53.2886 78.9578 52.755 79.2872C52.2251 79.6166 51.611 79.7813 50.9127 79.7813ZM50.8322 73.1642H49.8707V78.5836H50.8322C51.269 78.5836 51.636 78.469 51.9332 78.2398C52.234 78.0143 52.4632 77.7027 52.6207 77.3053C52.7819 76.9078 52.8624 76.4549 52.8624 75.9464V75.796C52.8624 75.284 52.7837 74.8274 52.6261 74.4264C52.465 74.0325 52.234 73.7245 51.9332 73.5025C51.6325 73.277 51.2654 73.1642 50.8322 73.1642ZM58.3517 78.8414V79.7813H55.1183V78.8414L55.9508 78.6803V73.0675L55.1183 72.9063V71.961H58.3517V72.9063L57.5192 73.0675V78.6803L58.3517 78.8414ZM62.8205 79.8941C62.201 79.8941 61.6567 79.7867 61.1876 79.5719C60.715 79.357 60.348 79.0455 60.0866 78.6373C59.8252 78.2291 59.6945 77.7332 59.6945 77.1495V73.0675L58.862 72.9063V71.961H62.1007V72.9063L61.2628 73.0675V77.1495C61.2628 77.4897 61.3255 77.7761 61.4508 78.0089C61.7015 78.4636 62.158 78.691 62.8205 78.691C63.1463 78.691 63.4292 78.6337 63.6691 78.5191C64.1525 78.2864 64.3942 77.8299 64.3942 77.1495V73.0675L63.5617 72.9063V71.961H66.8004V72.9063L65.9625 73.0675V77.1495C65.9625 77.7368 65.8318 78.2327 65.5705 78.6373C65.3091 79.0491 64.942 79.3624 64.4694 79.5772C63.9967 79.7885 63.4471 79.8941 62.8205 79.8941ZM70.5495 78.8414V79.7813H67.3107V78.8414L68.1432 78.6803V73.0675L67.3107 72.9063V71.961H70.4635L72.5958 77.4127H72.6281L74.6906 71.961H77.8488V72.9063L77.0109 73.0675V78.6803L77.8488 78.8414V79.7813H74.61V78.8414L75.4855 78.6803V77.1817L75.5123 73.6529L75.4801 73.6476L73.1437 79.6739H71.9567L69.5665 73.6959L69.5343 73.7013L69.6256 77.0206V78.6803L70.5495 78.8414Z"/>
</mask>
<path d="M32.5758 78.8414V79.7813H29.3371V78.8414L30.1696 78.6803V73.0675L29.3371 72.9063V71.961H32.4899L34.6222 77.4127H34.6544L36.7169 71.961H39.8751V72.9063L39.0373 73.0675V78.6803L39.8751 78.8414V79.7813H36.6364V78.8414L37.5119 78.6803V77.1817L37.5387 73.6529L37.5065 73.6476L35.1701 79.6739H33.9831L31.5929 73.6959L31.5607 73.7013L31.652 77.0206V78.6803L32.5758 78.8414ZM46.6212 77.6437V79.7813H40.4337V78.8414L41.2663 78.6803V73.0675L40.4337 72.9063V71.961H46.5031V74.0719H45.2999L45.2301 73.1695H42.8346V75.1354H45.4826V76.3438H42.8346V78.5782H45.359L45.4289 77.6437H46.6212ZM50.9127 79.7813H47.4591V78.8414L48.3024 78.6642V73.089L47.4591 72.9063V71.961H50.8913C51.5931 71.961 52.209 72.124 52.7389 72.4498C53.2724 72.7757 53.6878 73.2286 53.985 73.8087C54.2858 74.3888 54.4362 75.053 54.4362 75.8014V75.9464C54.4362 76.6912 54.2894 77.35 53.9957 77.923C53.7021 78.503 53.2886 78.9578 52.755 79.2872C52.2251 79.6166 51.611 79.7813 50.9127 79.7813ZM50.8322 73.1642H49.8707V78.5836H50.8322C51.269 78.5836 51.636 78.469 51.9332 78.2398C52.234 78.0143 52.4632 77.7027 52.6207 77.3053C52.7819 76.9078 52.8624 76.4549 52.8624 75.9464V75.796C52.8624 75.284 52.7837 74.8274 52.6261 74.4264C52.465 74.0325 52.234 73.7245 51.9332 73.5025C51.6325 73.277 51.2654 73.1642 50.8322 73.1642ZM58.3517 78.8414V79.7813H55.1183V78.8414L55.9508 78.6803V73.0675L55.1183 72.9063V71.961H58.3517V72.9063L57.5192 73.0675V78.6803L58.3517 78.8414ZM62.8205 79.8941C62.201 79.8941 61.6567 79.7867 61.1876 79.5719C60.715 79.357 60.348 79.0455 60.0866 78.6373C59.8252 78.2291 59.6945 77.7332 59.6945 77.1495V73.0675L58.862 72.9063V71.961H62.1007V72.9063L61.2628 73.0675V77.1495C61.2628 77.4897 61.3255 77.7761 61.4508 78.0089C61.7015 78.4636 62.158 78.691 62.8205 78.691C63.1463 78.691 63.4292 78.6337 63.6691 78.5191C64.1525 78.2864 64.3942 77.8299 64.3942 77.1495V73.0675L63.5617 72.9063V71.961H66.8004V72.9063L65.9625 73.0675V77.1495C65.9625 77.7368 65.8318 78.2327 65.5705 78.6373C65.3091 79.0491 64.942 79.3624 64.4694 79.5772C63.9967 79.7885 63.4471 79.8941 62.8205 79.8941ZM70.5495 78.8414V79.7813H67.3107V78.8414L68.1432 78.6803V73.0675L67.3107 72.9063V71.961H70.4635L72.5958 77.4127H72.6281L74.6906 71.961H77.8488V72.9063L77.0109 73.0675V78.6803L77.8488 78.8414V79.7813H74.61V78.8414L75.4855 78.6803V77.1817L75.5123 73.6529L75.4801 73.6476L73.1437 79.6739H71.9567L69.5665 73.6959L69.5343 73.7013L69.6256 77.0206V78.6803L70.5495 78.8414Z" fill="#FFE8B6"/>
<path d="M32.5758 78.8414H34.5758V77.1601L32.9195 76.8712L32.5758 78.8414ZM32.5758 79.7813V81.7813H34.5758V79.7813H32.5758ZM29.3371 79.7813H27.3371V81.7813H29.3371V79.7813ZM29.3371 78.8414L28.957 76.8778L27.3371 77.1914V78.8414H29.3371ZM30.1696 78.6803L30.5496 80.6438L32.1696 80.3303V78.6803H30.1696ZM30.1696 73.0675H32.1696V71.4175L30.5496 71.1039L30.1696 73.0675ZM29.3371 72.9063H27.3371V74.5564L28.957 74.8699L29.3371 72.9063ZM29.3371 71.961V69.961H27.3371V71.961H29.3371ZM32.4899 71.961L34.3525 71.2325L33.8552 69.961H32.4899V71.961ZM34.6222 77.4127L32.7596 78.1412L33.2569 79.4127H34.6222V77.4127ZM34.6544 77.4127V79.4127H36.0361L36.525 78.1204L34.6544 77.4127ZM36.7169 71.961V69.961H35.3352L34.8463 71.2533L36.7169 71.961ZM39.8751 71.961H41.8751V69.961H39.8751V71.961ZM39.8751 72.9063L40.2528 74.8704L41.8751 74.5584V72.9063H39.8751ZM39.0373 73.0675L38.6596 71.1035L37.0373 71.4155V73.0675H39.0373ZM39.0373 78.6803H37.0373V80.3323L38.6596 80.6443L39.0373 78.6803ZM39.8751 78.8414H41.8751V77.1894L40.2528 76.8774L39.8751 78.8414ZM39.8751 79.7813V81.7813H41.8751V79.7813H39.8751ZM36.6364 79.7813H34.6364V81.7813H36.6364V79.7813ZM36.6364 78.8414L36.2744 76.8744L34.6364 77.1759V78.8414H36.6364ZM37.5119 78.6803L37.8739 80.6472L39.5119 80.3458V78.6803H37.5119ZM37.5119 77.1817L35.5119 77.1665L35.5119 77.1741V77.1817H37.5119ZM37.5387 73.6529L39.5387 73.6682L39.5517 71.9608L37.8675 71.6801L37.5387 73.6529ZM37.5065 73.6476L37.8353 71.6748L36.23 71.4072L35.6417 72.9246L37.5065 73.6476ZM35.1701 79.6739V81.6739H36.5397L37.0348 80.3969L35.1701 79.6739ZM33.9831 79.6739L32.126 80.4164L32.6288 81.6739H33.9831V79.6739ZM31.5929 73.6959L33.45 72.9534L32.8523 71.4584L31.2641 71.7231L31.5929 73.6959ZM31.5607 73.7013L31.2319 71.7285L29.5135 72.0149L29.5614 73.7563L31.5607 73.7013ZM31.652 77.0206H33.652V76.9931L33.6512 76.9656L31.652 77.0206ZM31.652 78.6803H29.652V80.3616L31.3083 80.6505L31.652 78.6803ZM30.5758 78.8414V79.7813H34.5758V78.8414H30.5758ZM32.5758 77.7813H29.3371V81.7813H32.5758V77.7813ZM31.3371 79.7813V78.8414H27.3371V79.7813H31.3371ZM29.7171 80.805L30.5496 80.6438L29.7895 76.7167L28.957 76.8778L29.7171 80.805ZM32.1696 78.6803V73.0675H28.1696V78.6803H32.1696ZM30.5496 71.1039L29.7171 70.9428L28.957 74.8699L29.7895 75.031L30.5496 71.1039ZM31.3371 72.9063V71.961H27.3371V72.9063H31.3371ZM29.3371 73.961H32.4899V69.961H29.3371V73.961ZM30.6273 72.6896L32.7596 78.1412L36.4848 76.6842L34.3525 71.2325L30.6273 72.6896ZM34.6222 79.4127H34.6544V75.4127H34.6222V79.4127ZM36.525 78.1204L38.5875 72.6687L34.8463 71.2533L32.7838 76.705L36.525 78.1204ZM36.7169 73.961H39.8751V69.961H36.7169V73.961ZM37.8751 71.961V72.9063H41.8751V71.961H37.8751ZM39.4974 70.9423L38.6596 71.1035L39.4149 75.0315L40.2528 74.8704L39.4974 70.9423ZM37.0373 73.0675V78.6803H41.0373V73.0675H37.0373ZM38.6596 80.6443L39.4974 80.8054L40.2528 76.8774L39.4149 76.7163L38.6596 80.6443ZM37.8751 78.8414V79.7813H41.8751V78.8414H37.8751ZM39.8751 77.7813H36.6364V81.7813H39.8751V77.7813ZM38.6364 79.7813V78.8414H34.6364V79.7813H38.6364ZM36.9984 80.8084L37.8739 80.6472L37.1498 76.7133L36.2744 76.8744L36.9984 80.8084ZM39.5119 78.6803V77.1817H35.5119V78.6803H39.5119ZM39.5118 77.197L39.5387 73.6682L35.5388 73.6377L35.5119 77.1665L39.5118 77.197ZM37.8675 71.6801L37.8353 71.6748L37.1777 75.6203L37.2099 75.6257L37.8675 71.6801ZM35.6417 72.9246L33.3053 78.951L37.0348 80.3969L39.3712 74.3705L35.6417 72.9246ZM35.1701 77.6739H33.9831V81.6739H35.1701V77.6739ZM35.8401 78.9314L33.45 72.9534L29.7358 74.4384L32.126 80.4164L35.8401 78.9314ZM31.2641 71.7231L31.2319 71.7285L31.8895 75.6741L31.9217 75.6687L31.2641 71.7231ZM29.5614 73.7563L29.6528 77.0756L33.6512 76.9656L33.5599 73.6463L29.5614 73.7563ZM29.652 77.0206V78.6803H33.652V77.0206H29.652ZM31.3083 80.6505L32.2322 80.8117L32.9195 76.8712L31.9956 76.71L31.3083 80.6505ZM46.6212 77.6437H48.6212V75.6437H46.6212V77.6437ZM46.6212 79.7813V81.7813H48.6212V79.7813H46.6212ZM40.4337 79.7813H38.4337V81.7813H40.4337V79.7813ZM40.4337 78.8414L40.0537 76.8778L38.4337 77.1914V78.8414H40.4337ZM41.2663 78.6803L41.6463 80.6438L43.2663 80.3303V78.6803H41.2663ZM41.2663 73.0675H43.2663V71.4175L41.6463 71.1039L41.2663 73.0675ZM40.4337 72.9063H38.4337V74.5564L40.0537 74.8699L40.4337 72.9063ZM40.4337 71.961V69.961H38.4337V71.961H40.4337ZM46.5031 71.961H48.5031V69.961H46.5031V71.961ZM46.5031 74.0719V76.0719H48.5031V74.0719H46.5031ZM45.2999 74.0719L43.3059 74.2262L43.4487 76.0719H45.2999V74.0719ZM45.2301 73.1695L47.2242 73.0152L47.0813 71.1695H45.2301V73.1695ZM42.8346 73.1695V71.1695H40.8346V73.1695H42.8346ZM42.8346 75.1354H40.8346V77.1354H42.8346V75.1354ZM45.4826 75.1354H47.4826V73.1354H45.4826V75.1354ZM45.4826 76.3438V78.3438H47.4826V76.3438H45.4826ZM42.8346 76.3438V74.3438H40.8346V76.3438H42.8346ZM42.8346 78.5782H40.8346V80.5782H42.8346V78.5782ZM45.359 78.5782V80.5782H47.2152L47.3535 78.7272L45.359 78.5782ZM45.4289 77.6437V75.6437H43.5727L43.4344 77.4946L45.4289 77.6437ZM44.6212 77.6437V79.7813H48.6212V77.6437H44.6212ZM46.6212 77.7813H40.4337V81.7813H46.6212V77.7813ZM42.4337 79.7813V78.8414H38.4337V79.7813H42.4337ZM40.8138 80.805L41.6463 80.6438L40.8862 76.7167L40.0537 76.8778L40.8138 80.805ZM43.2663 78.6803V73.0675H39.2663V78.6803H43.2663ZM41.6463 71.1039L40.8138 70.9428L40.0537 74.8699L40.8862 75.031L41.6463 71.1039ZM42.4337 72.9063V71.961H38.4337V72.9063H42.4337ZM40.4337 73.961H46.5031V69.961H40.4337V73.961ZM44.5031 71.961V74.0719H48.5031V71.961H44.5031ZM46.5031 72.0719H45.2999V76.0719H46.5031V72.0719ZM47.294 73.9176L47.2242 73.0152L43.2361 73.3238L43.3059 74.2262L47.294 73.9176ZM45.2301 71.1695H42.8346V75.1695H45.2301V71.1695ZM40.8346 73.1695V75.1354H44.8346V73.1695H40.8346ZM42.8346 77.1354H45.4826V73.1354H42.8346V77.1354ZM43.4826 75.1354V76.3438H47.4826V75.1354H43.4826ZM45.4826 74.3438H42.8346V78.3438H45.4826V74.3438ZM40.8346 76.3438V78.5782H44.8346V76.3438H40.8346ZM42.8346 80.5782H45.359V76.5782H42.8346V80.5782ZM47.3535 78.7272L47.4233 77.7927L43.4344 77.4946L43.3646 78.4292L47.3535 78.7272ZM45.4289 79.6437H46.6212V75.6437H45.4289V79.6437ZM47.4591 79.7813H45.4591V81.7813H47.4591V79.7813ZM47.4591 78.8414L47.0477 76.8842L45.4591 77.2181V78.8414H47.4591ZM48.3024 78.6642L48.7138 80.6214L50.3024 80.2875V78.6642H48.3024ZM48.3024 73.089H50.3024V71.4757L48.7257 71.1343L48.3024 73.089ZM47.4591 72.9063H45.4591V74.5196L47.0358 74.861L47.4591 72.9063ZM47.4591 71.961V69.961H45.4591V71.961H47.4591ZM52.7389 72.4498L51.6914 74.1535L51.6965 74.1567L52.7389 72.4498ZM53.985 73.8087L52.205 74.7207L52.2095 74.7293L53.985 73.8087ZM53.9957 77.923L52.2159 77.0108L52.2113 77.0197L53.9957 77.923ZM52.755 79.2872L51.7043 77.5855L51.6992 77.5886L52.755 79.2872ZM49.8707 73.1642V71.1642H47.8707V73.1642H49.8707ZM49.8707 78.5836H47.8707V80.5836H49.8707V78.5836ZM51.9332 78.2398L50.7332 76.6398L50.7226 76.6479L50.712 76.656L51.9332 78.2398ZM52.6207 77.3053L50.7673 76.5539L50.7644 76.5611L50.7615 76.5683L52.6207 77.3053ZM52.6261 74.4264L54.4876 73.6951L54.4825 73.682L54.4772 73.6691L52.6261 74.4264ZM51.9332 73.5025L50.7332 75.1025L50.7394 75.1071L50.7455 75.1117L51.9332 73.5025ZM50.9127 77.7813H47.4591V81.7813H50.9127V77.7813ZM49.4591 79.7813V78.8414H45.4591V79.7813H49.4591ZM47.8705 80.7986L48.7138 80.6214L47.891 76.7069L47.0477 76.8842L47.8705 80.7986ZM50.3024 78.6642V73.089H46.3024V78.6642H50.3024ZM48.7257 71.1343L47.8824 70.9517L47.0358 74.861L47.8791 75.0437L48.7257 71.1343ZM49.4591 72.9063V71.961H45.4591V72.9063H49.4591ZM47.4591 73.961H50.8913V69.961H47.4591V73.961ZM50.8913 73.961C51.2718 73.961 51.5155 74.0454 51.6914 74.1535L53.7865 70.7461C52.9025 70.2026 51.9143 69.961 50.8913 69.961V73.961ZM51.6965 74.1567C51.9019 74.2821 52.0683 74.4538 52.205 74.7207L55.765 72.8967C55.3073 72.0035 54.643 71.2692 53.7813 70.743L51.6965 74.1567ZM52.2095 74.7293C52.3426 74.9861 52.4362 75.3266 52.4362 75.8014H56.4362C56.4362 74.7794 56.229 73.7915 55.7605 72.8881L52.2095 74.7293ZM52.4362 75.8014V75.9464H56.4362V75.8014H52.4362ZM52.4362 75.9464C52.4362 76.4239 52.3437 76.7614 52.2159 77.0108L55.7756 78.8351C56.2351 77.9386 56.4362 76.9585 56.4362 75.9464H52.4362ZM52.2113 77.0197C52.0776 77.2839 51.9125 77.4569 51.7043 77.5855L53.8058 80.989C54.6646 80.4586 55.3266 79.7222 55.7802 78.8262L52.2113 77.0197ZM51.6992 77.5886C51.5228 77.6982 51.2835 77.7813 50.9127 77.7813V81.7813C51.9385 81.7813 52.9273 81.535 53.8109 80.9858L51.6992 77.5886ZM50.8322 71.1642H49.8707V75.1642H50.8322V71.1642ZM47.8707 73.1642V78.5836H51.8707V73.1642H47.8707ZM49.8707 80.5836H50.8322V76.5836H49.8707V80.5836ZM50.8322 80.5836C51.6354 80.5836 52.452 80.3654 53.1545 79.8237L50.712 76.656C50.7555 76.6224 50.8022 76.6 50.8391 76.5885C50.8727 76.578 50.8755 76.5836 50.8322 76.5836V80.5836ZM53.1332 79.8398C53.768 79.3638 54.2056 78.7346 54.48 78.0423L50.7615 76.5683C50.7393 76.6242 50.7226 76.6479 50.7197 76.6519C50.718 76.6541 50.7186 76.653 50.7217 76.6499C50.7249 76.6467 50.7289 76.6431 50.7332 76.6398L53.1332 79.8398ZM54.4742 78.0567C54.7483 77.3806 54.8624 76.6655 54.8624 75.9464H50.8624C50.8624 76.2442 50.8155 76.435 50.7673 76.5539L54.4742 78.0567ZM54.8624 75.9464V75.796H50.8624V75.9464H54.8624ZM54.8624 75.796C54.8624 75.0798 54.7522 74.3685 54.4876 73.6951L50.7646 75.1577C50.8152 75.2864 50.8624 75.4881 50.8624 75.796H54.8624ZM54.4772 73.6691C54.1969 72.9838 53.7559 72.362 53.121 71.8934L50.7455 75.1117C50.7347 75.1037 50.7299 75.0971 50.7321 75.1C50.7352 75.1042 50.7522 75.128 50.775 75.1836L54.4772 73.6691ZM53.1332 71.9025C52.4351 71.3789 51.6295 71.1642 50.8322 71.1642V75.1642C50.8748 75.1642 50.8744 75.1696 50.8449 75.1605C50.8305 75.1561 50.812 75.1491 50.7913 75.1385C50.7704 75.128 50.7508 75.1157 50.7332 75.1025L53.1332 71.9025ZM58.3517 78.8414H60.3517V77.1914L58.7317 76.8778L58.3517 78.8414ZM58.3517 79.7813V81.7813H60.3517V79.7813H58.3517ZM55.1183 79.7813H53.1183V81.7813H55.1183V79.7813ZM55.1183 78.8414L54.7383 76.8778L53.1183 77.1914V78.8414H55.1183ZM55.9508 78.6803L56.3309 80.6438L57.9508 80.3303V78.6803H55.9508ZM55.9508 73.0675H57.9508V71.4175L56.3309 71.1039L55.9508 73.0675ZM55.1183 72.9063H53.1183V74.5564L54.7383 74.8699L55.1183 72.9063ZM55.1183 71.961V69.961H53.1183V71.961H55.1183ZM58.3517 71.961H60.3517V69.961H58.3517V71.961ZM58.3517 72.9063L58.7317 74.8699L60.3517 74.5564V72.9063H58.3517ZM57.5192 73.0675L57.1391 71.1039L55.5192 71.4175V73.0675H57.5192ZM57.5192 78.6803H55.5192V80.3303L57.1391 80.6438L57.5192 78.6803ZM56.3517 78.8414V79.7813H60.3517V78.8414H56.3517ZM58.3517 77.7813H55.1183V81.7813H58.3517V77.7813ZM57.1183 79.7813V78.8414H53.1183V79.7813H57.1183ZM55.4983 80.805L56.3309 80.6438L55.5708 76.7167L54.7383 76.8778L55.4983 80.805ZM57.9508 78.6803V73.0675H53.9508V78.6803H57.9508ZM56.3309 71.1039L55.4983 70.9428L54.7383 74.8699L55.5708 75.031L56.3309 71.1039ZM57.1183 72.9063V71.961H53.1183V72.9063H57.1183ZM55.1183 73.961H58.3517V69.961H55.1183V73.961ZM56.3517 71.961V72.9063H60.3517V71.961H56.3517ZM57.9717 70.9428L57.1391 71.1039L57.8992 75.031L58.7317 74.8699L57.9717 70.9428ZM55.5192 73.0675V78.6803H59.5192V73.0675H55.5192ZM57.1391 80.6438L57.9717 80.805L58.7317 76.8778L57.8992 76.7167L57.1391 80.6438ZM61.1876 79.5719L62.0205 77.7535L62.0152 77.7511L61.1876 79.5719ZM60.0866 78.6373L58.4023 79.7158L60.0866 78.6373ZM59.6945 73.0675H61.6945V71.4175L60.0745 71.1039L59.6945 73.0675ZM58.862 72.9063H56.862V74.5564L58.4819 74.8699L58.862 72.9063ZM58.862 71.961V69.961H56.862V71.961H58.862ZM62.1007 71.961H64.1007V69.961H62.1007V71.961ZM62.1007 72.9063L62.4784 74.8704L64.1007 74.5584V72.9063H62.1007ZM61.2628 73.0675L60.8851 71.1035L59.2628 71.4155V73.0675H61.2628ZM61.4508 78.0089L59.6899 78.9571L59.6945 78.9657L59.6993 78.9743L61.4508 78.0089ZM63.6691 78.5191L64.531 80.3239L64.5367 80.3211L63.6691 78.5191ZM64.3942 73.0675H66.3942V71.4175L64.7742 71.1039L64.3942 73.0675ZM63.5617 72.9063H61.5617V74.5564L63.1816 74.8699L63.5617 72.9063ZM63.5617 71.961V69.961H61.5617V71.961H63.5617ZM66.8004 71.961H68.8004V69.961H66.8004V71.961ZM66.8004 72.9063L67.1781 74.8704L68.8004 74.5584V72.9063H66.8004ZM65.9625 73.0675L65.5848 71.1035L63.9625 71.4155V73.0675H65.9625ZM65.5705 78.6373L63.8905 77.552L63.8862 77.5587L63.8819 77.5655L65.5705 78.6373ZM64.4694 79.5772L65.2855 81.4032L65.297 81.398L64.4694 79.5772ZM62.8205 77.8941C62.4317 77.8941 62.1811 77.8271 62.0205 77.7535L60.3548 81.3902C61.1323 81.7463 61.9703 81.8941 62.8205 81.8941V77.8941ZM62.0152 77.7511C61.8676 77.684 61.8093 77.6188 61.7708 77.5588L58.4023 79.7158C58.8866 80.4722 59.5623 81.03 60.36 81.3926L62.0152 77.7511ZM61.7708 77.5588C61.7543 77.533 61.6945 77.4297 61.6945 77.1495H57.6945C57.6945 78.0367 57.896 78.9252 58.4023 79.7158L61.7708 77.5588ZM61.6945 77.1495V73.0675H57.6945V77.1495H61.6945ZM60.0745 71.1039L59.242 70.9428L58.4819 74.8699L59.3144 75.031L60.0745 71.1039ZM60.862 72.9063V71.961H56.862V72.9063H60.862ZM58.862 73.961H62.1007V69.961H58.862V73.961ZM60.1007 71.961V72.9063H64.1007V71.961H60.1007ZM61.723 70.9423L60.8851 71.1035L61.6405 75.0315L62.4784 74.8704L61.723 70.9423ZM59.2628 73.0675V77.1495H63.2628V73.0675H59.2628ZM59.2628 77.1495C59.2628 77.7283 59.369 78.3612 59.6899 78.9571L63.2118 77.0607C63.282 77.1911 63.2628 77.2511 63.2628 77.1495H59.2628ZM59.6993 78.9743C60.402 80.2492 61.6637 80.691 62.8205 80.691V76.691C62.7095 76.691 62.7541 76.6711 62.8728 76.7302C62.9342 76.7608 63.002 76.8062 63.0659 76.8678C63.1296 76.9292 63.1739 76.9919 63.2024 77.0435L59.6993 78.9743ZM62.8205 80.691C63.3786 80.691 63.9682 80.5927 64.531 80.3239L62.8071 76.7144C62.8472 76.6953 62.8743 76.689 62.88 76.6878C62.8847 76.6869 62.8668 76.691 62.8205 76.691V80.691ZM64.5367 80.3211C65.9101 79.6599 66.3942 78.3511 66.3942 77.1495H62.3942C62.3942 77.2632 62.3729 77.2033 62.4453 77.0664C62.4828 76.9957 62.5371 76.9208 62.6083 76.8531C62.679 76.7859 62.7485 76.7426 62.8015 76.7171L64.5367 80.3211ZM66.3942 77.1495V73.0675H62.3942V77.1495H66.3942ZM64.7742 71.1039L63.9417 70.9428L63.1816 74.8699L64.0141 75.031L64.7742 71.1039ZM65.5617 72.9063V71.961H61.5617V72.9063H65.5617ZM63.5617 73.961H66.8004V69.961H63.5617V73.961ZM64.8004 71.961V72.9063H68.8004V71.961H64.8004ZM66.4227 70.9423L65.5848 71.1035L66.3402 75.0315L67.1781 74.8704L66.4227 70.9423ZM63.9625 73.0675V77.1495H67.9625V73.0675H63.9625ZM63.9625 77.1495C63.9625 77.4366 63.9012 77.5354 63.8905 77.552L67.2504 79.7226C67.7624 78.9299 67.9625 78.0369 67.9625 77.1495H63.9625ZM63.8819 77.5655C63.8423 77.6278 63.7847 77.6915 63.6418 77.7565L65.297 81.398C66.0993 81.0333 66.7758 80.4704 67.259 79.7092L63.8819 77.5655ZM63.6533 77.7513C63.4855 77.8263 63.2238 77.8941 62.8205 77.8941V81.8941C63.6704 81.8941 64.508 81.7507 65.2855 81.4032L63.6533 77.7513ZM70.5495 78.8414H72.5495V77.1601L70.8931 76.8712L70.5495 78.8414ZM70.5495 79.7813V81.7813H72.5495V79.7813H70.5495ZM67.3107 79.7813H65.3107V81.7813H67.3107V79.7813ZM67.3107 78.8414L66.9306 76.8778L65.3107 77.1914V78.8414H67.3107ZM68.1432 78.6803L68.5233 80.6438L70.1432 80.3303V78.6803H68.1432ZM68.1432 73.0675H70.1432V71.4175L68.5233 71.1039L68.1432 73.0675ZM67.3107 72.9063H65.3107V74.5564L66.9306 74.8699L67.3107 72.9063ZM67.3107 71.961V69.961H65.3107V71.961H67.3107ZM70.4635 71.961L72.3261 71.2325L71.8288 69.961H70.4635V71.961ZM72.5958 77.4127L70.7333 78.1412L71.2306 79.4127H72.5958V77.4127ZM72.6281 77.4127V79.4127H74.0098L74.4987 78.1204L72.6281 77.4127ZM74.6906 71.961V69.961H73.3089L72.82 71.2533L74.6906 71.961ZM77.8488 71.961H79.8488V69.961H77.8488V71.961ZM77.8488 72.9063L78.2265 74.8704L79.8488 74.5584V72.9063H77.8488ZM77.0109 73.0675L76.6332 71.1035L75.0109 71.4155V73.0675H77.0109ZM77.0109 78.6803H75.0109V80.3323L76.6332 80.6443L77.0109 78.6803ZM77.8488 78.8414H79.8488V77.1894L78.2265 76.8774L77.8488 78.8414ZM77.8488 79.7813V81.7813H79.8488V79.7813H77.8488ZM74.61 79.7813H72.61V81.7813H74.61V79.7813ZM74.61 78.8414L74.248 76.8744L72.61 77.1759V78.8414H74.61ZM75.4855 78.6803L75.8475 80.6472L77.4855 80.3458V78.6803H75.4855ZM75.4855 77.1817L73.4856 77.1665L73.4855 77.1741V77.1817H75.4855ZM75.5123 73.6529L77.5123 73.6682L77.5253 71.9608L75.8411 71.6801L75.5123 73.6529ZM75.4801 73.6476L75.8089 71.6748L74.2036 71.4072L73.6154 72.9246L75.4801 73.6476ZM73.1437 79.6739V81.6739H74.5133L75.0085 80.3969L73.1437 79.6739ZM71.9567 79.6739L70.0996 80.4164L70.6024 81.6739H71.9567V79.6739ZM69.5665 73.6959L71.4236 72.9534L70.8259 71.4584L69.2377 71.7231L69.5665 73.6959ZM69.5343 73.7013L69.2055 71.7285L67.4872 72.0149L67.5351 73.7563L69.5343 73.7013ZM69.6256 77.0206H71.6256V76.9931L71.6249 76.9656L69.6256 77.0206ZM69.6256 78.6803H67.6256V80.3616L69.282 80.6505L69.6256 78.6803ZM68.5495 78.8414V79.7813H72.5495V78.8414H68.5495ZM70.5495 77.7813H67.3107V81.7813H70.5495V77.7813ZM69.3107 79.7813V78.8414H65.3107V79.7813H69.3107ZM67.6907 80.805L68.5233 80.6438L67.7632 76.7167L66.9306 76.8778L67.6907 80.805ZM70.1432 78.6803V73.0675H66.1432V78.6803H70.1432ZM68.5233 71.1039L67.6907 70.9428L66.9306 74.8699L67.7632 75.031L68.5233 71.1039ZM69.3107 72.9063V71.961H65.3107V72.9063H69.3107ZM67.3107 73.961H70.4635V69.961H67.3107V73.961ZM68.6009 72.6896L70.7333 78.1412L74.4584 76.6842L72.3261 71.2325L68.6009 72.6896ZM72.5958 79.4127H72.6281V75.4127H72.5958V79.4127ZM74.4987 78.1204L76.5612 72.6687L72.82 71.2533L70.7575 76.705L74.4987 78.1204ZM74.6906 73.961H77.8488V69.961H74.6906V73.961ZM75.8488 71.961V72.9063H79.8488V71.961H75.8488ZM77.4711 70.9423L76.6332 71.1035L77.3886 75.0315L78.2265 74.8704L77.4711 70.9423ZM75.0109 73.0675V78.6803H79.0109V73.0675H75.0109ZM76.6332 80.6443L77.4711 80.8054L78.2265 76.8774L77.3886 76.7163L76.6332 80.6443ZM75.8488 78.8414V79.7813H79.8488V78.8414H75.8488ZM77.8488 77.7813H74.61V81.7813H77.8488V77.7813ZM76.61 79.7813V78.8414H72.61V79.7813H76.61ZM74.972 80.8084L75.8475 80.6472L75.1235 76.7133L74.248 76.8744L74.972 80.8084ZM77.4855 78.6803V77.1817H73.4855V78.6803H77.4855ZM77.4854 77.197L77.5123 73.6682L73.5124 73.6377L73.4856 77.1665L77.4854 77.197ZM75.8411 71.6801L75.8089 71.6748L75.1513 75.6203L75.1836 75.6257L75.8411 71.6801ZM73.6154 72.9246L71.2789 78.951L75.0085 80.3969L77.3449 74.3705L73.6154 72.9246ZM73.1437 77.6739H71.9567V81.6739H73.1437V77.6739ZM73.8138 78.9314L71.4236 72.9534L67.7095 74.4384L70.0996 80.4164L73.8138 78.9314ZM69.2377 71.7231L69.2055 71.7285L69.8631 75.6741L69.8953 75.6687L69.2377 71.7231ZM67.5351 73.7563L67.6264 77.0756L71.6249 76.9656L71.5336 73.6463L67.5351 73.7563ZM67.6256 77.0206V78.6803H71.6256V77.0206H67.6256ZM69.282 80.6505L70.2058 80.8117L70.8931 76.8712L69.9693 76.71L69.282 80.6505Z" fill="#150E0B" mask="url(#path-9-outside-1_18_34)"/>
</svg>
