<svg width="108" height="108" viewBox="0 0 108 108" fill="none" xmlns="http://www.w3.org/2000/svg">
<circle cx="54" cy="54" r="51" fill="#9B624A" stroke="#150E0B" stroke-width="6"/>
<path d="M28.2478 39.182V40.4268C28.2478 47.4672 28.2478 50.99 30.4361 53.1758C32.6219 55.3641 36.1446 55.3641 43.1851 55.3641C46.4812 55.2844 53.1433 56.6089 58.7099 60.7589C60.5855 62.0031 62.7633 62.7155 65.0115 62.8203C67.2598 62.9251 69.4944 62.4183 71.4776 61.354C73.4607 60.2896 75.1181 58.7074 76.2735 56.7759C77.4289 54.8444 78.0389 52.6357 78.0387 50.385V40.4268" fill="#B0413E"/>
<path d="M28.2478 39.182V40.4268C28.2478 47.4672 28.2478 50.99 30.4361 53.1758C32.6219 55.3641 36.1446 55.3641 43.1851 55.3641C46.4812 55.2844 53.1433 56.6089 58.7099 60.7589C60.5855 62.0031 62.7633 62.7155 65.0115 62.8203C67.2598 62.9251 69.4944 62.4183 71.4776 61.354C73.4607 60.2896 75.1181 58.7074 76.2735 56.7759C77.4289 54.8444 78.0389 52.6357 78.0387 50.385V40.4268" stroke="#150E0B" stroke-width="2" stroke-linecap="round" stroke-linejoin="round"/>
<path d="M65.591 52.8746C67.9027 52.8746 70.1687 52.2308 72.1352 51.0155C74.1016 49.8002 75.6908 48.0613 76.7246 45.9936C77.7584 43.926 78.196 41.6113 77.9884 39.309C77.7808 37.0066 76.9362 34.8075 75.5492 32.9582C70.2589 25.9128 63.1015 23 53.1433 23C43.1851 23 28.2478 30.1326 28.2478 39.1821C28.2478 40.8327 28.9035 42.4158 30.0707 43.583C31.2379 44.7502 32.821 45.4059 34.4717 45.4059H43.1851C46.4812 45.3238 53.1433 46.6507 58.7099 50.8008C60.7498 52.1535 63.1433 52.8749 65.591 52.8746Z" fill="#EE7774" stroke="#150E0B" stroke-width="2" stroke-linecap="round" stroke-linejoin="round"/>
<path d="M69.3253 40.4268C69.3253 41.4172 68.9319 42.3671 68.2316 43.0674C67.5312 43.7677 66.5814 44.1611 65.591 44.1611C64.6006 44.1611 63.6508 43.7677 62.9504 43.0674C62.2501 42.3671 61.8567 41.4172 61.8567 40.4268C61.8567 39.4364 62.2501 38.4866 62.9504 37.7863C63.6508 37.0859 64.6006 36.6925 65.591 36.6925C66.5814 36.6925 67.5312 37.0859 68.2316 37.7863C68.9319 38.4866 69.3253 39.4364 69.3253 40.4268Z" fill="#DFD6B9" stroke="#150E0B" stroke-width="2" stroke-linecap="round" stroke-linejoin="round"/>
<path d="M37.0907 39.2518L50.2355 30.4089" stroke="#150E0C" stroke-width="2" stroke-linecap="round"/>
<path d="M43.7826 39.2518L56.9274 30.4089" stroke="#150E0C" stroke-width="2" stroke-linecap="round"/>
<path d="M51.6695 39.2518L64.8143 30.4089" stroke="#150E0C" stroke-width="2" stroke-linecap="round"/>
<mask id="path-9-outside-1_18_44" maskUnits="userSpaceOnUse" x="36" y="69.7813" width="35" height="12" fill="black">
<rect fill="white" x="36" y="69.7813" width="35" height="12"/>
<path d="M44.0109 76.3868L45.0045 78.6856L45.6706 78.8414V79.7813H43.7692L42.5661 76.693H41.1373V78.6803L41.9752 78.8414V79.7813H38.7365V78.8414L39.569 78.6803V73.0675L38.7365 72.9063V71.961H42.4425C43.0477 71.961 43.5633 72.0541 43.9894 72.2403C44.4191 72.4265 44.7485 72.6933 44.9777 73.0406C45.2104 73.388 45.3268 73.8051 45.3268 74.2921C45.3268 74.754 45.2122 75.164 44.9831 75.5221C44.7539 75.8873 44.4298 76.1756 44.0109 76.3868ZM41.1373 73.1695V75.4845H42.4157C43.3144 75.4845 43.7638 75.1103 43.7638 74.3619C43.7638 74.0003 43.6528 73.712 43.4308 73.4972C43.2088 73.2787 42.8794 73.1695 42.4425 73.1695H41.1373ZM48.8825 78.8414V79.7813H46.2184V78.8414L46.777 78.7608L49.2638 71.961H50.8698L53.3405 78.7608L53.8991 78.8414V79.7813H51.235V78.8414L51.7775 78.7447L51.4337 77.6705H48.6837L48.34 78.7447L48.8825 78.8414ZM50.0426 73.5992L49.9621 73.8517L49.0543 76.5157H51.0631L50.15 73.8355L50.0748 73.5992H50.0426ZM59.6945 76.3868L60.6881 78.6856L61.3541 78.8414V79.7813H59.4528L58.2497 76.693H56.8209V78.6803L57.6588 78.8414V79.7813H54.4201V78.8414L55.2526 78.6803V73.0675L54.4201 72.9063V71.961H58.1261C58.7313 71.961 59.2469 72.0541 59.673 72.2403C60.1027 72.4265 60.4321 72.6933 60.6613 73.0406C60.894 73.388 61.0104 73.8051 61.0104 74.2921C61.0104 74.754 60.8958 75.164 60.6666 75.5221C60.4375 75.8873 60.1134 76.1756 59.6945 76.3868ZM56.8209 73.1695V75.4845H58.0993C58.998 75.4845 59.4474 75.1103 59.4474 74.3619C59.4474 74.0003 59.3364 73.712 59.1144 73.4972C58.8924 73.2787 58.563 73.1695 58.1261 73.1695H56.8209ZM68.1701 77.6437V79.7813H61.9826V78.8414L62.8151 78.6803V73.0675L61.9826 72.9063V71.961H68.0519V74.0719H66.8488L66.7789 73.1695H64.3834V75.1354H67.0314V76.3438H64.3834V78.5782H66.9079L66.9777 77.6437H68.1701Z"/>
</mask>
<path d="M44.0109 76.3868L45.0045 78.6856L45.6706 78.8414V79.7813H43.7692L42.5661 76.693H41.1373V78.6803L41.9752 78.8414V79.7813H38.7365V78.8414L39.569 78.6803V73.0675L38.7365 72.9063V71.961H42.4425C43.0477 71.961 43.5633 72.0541 43.9894 72.2403C44.4191 72.4265 44.7485 72.6933 44.9777 73.0406C45.2104 73.388 45.3268 73.8051 45.3268 74.2921C45.3268 74.754 45.2122 75.164 44.9831 75.5221C44.7539 75.8873 44.4298 76.1756 44.0109 76.3868ZM41.1373 73.1695V75.4845H42.4157C43.3144 75.4845 43.7638 75.1103 43.7638 74.3619C43.7638 74.0003 43.6528 73.712 43.4308 73.4972C43.2088 73.2787 42.8794 73.1695 42.4425 73.1695H41.1373ZM48.8825 78.8414V79.7813H46.2184V78.8414L46.777 78.7608L49.2638 71.961H50.8698L53.3405 78.7608L53.8991 78.8414V79.7813H51.235V78.8414L51.7775 78.7447L51.4337 77.6705H48.6837L48.34 78.7447L48.8825 78.8414ZM50.0426 73.5992L49.9621 73.8517L49.0543 76.5157H51.0631L50.15 73.8355L50.0748 73.5992H50.0426ZM59.6945 76.3868L60.6881 78.6856L61.3541 78.8414V79.7813H59.4528L58.2497 76.693H56.8209V78.6803L57.6588 78.8414V79.7813H54.4201V78.8414L55.2526 78.6803V73.0675L54.4201 72.9063V71.961H58.1261C58.7313 71.961 59.2469 72.0541 59.673 72.2403C60.1027 72.4265 60.4321 72.6933 60.6613 73.0406C60.894 73.388 61.0104 73.8051 61.0104 74.2921C61.0104 74.754 60.8958 75.164 60.6666 75.5221C60.4375 75.8873 60.1134 76.1756 59.6945 76.3868ZM56.8209 73.1695V75.4845H58.0993C58.998 75.4845 59.4474 75.1103 59.4474 74.3619C59.4474 74.0003 59.3364 73.712 59.1144 73.4972C58.8924 73.2787 58.563 73.1695 58.1261 73.1695H56.8209ZM68.1701 77.6437V79.7813H61.9826V78.8414L62.8151 78.6803V73.0675L61.9826 72.9063V71.961H68.0519V74.0719H66.8488L66.7789 73.1695H64.3834V75.1354H67.0314V76.3438H64.3834V78.5782H66.9079L66.9777 77.6437H68.1701Z" fill="#FFE8B6"/>
<path d="M44.0109 76.3868L43.1104 74.601L41.4271 75.4499L42.175 77.1803L44.0109 76.3868ZM45.0045 78.6856L43.1687 79.4792L43.5683 80.4037L44.5491 80.6331L45.0045 78.6856ZM45.6706 78.8414H47.6706V77.2552L46.126 76.894L45.6706 78.8414ZM45.6706 79.7813V81.7813H47.6706V79.7813H45.6706ZM43.7692 79.7813L41.9056 80.5073L42.4019 81.7813H43.7692V79.7813ZM42.5661 76.693L44.4296 75.967L43.9333 74.693H42.5661V76.693ZM41.1373 76.693V74.693H39.1373V76.693H41.1373ZM41.1373 78.6803H39.1373V80.3323L40.7597 80.6443L41.1373 78.6803ZM41.9752 78.8414H43.9752V77.1894L42.3529 76.8774L41.9752 78.8414ZM41.9752 79.7813V81.7813H43.9752V79.7813H41.9752ZM38.7365 79.7813H36.7365V81.7813H38.7365V79.7813ZM38.7365 78.8414L38.3564 76.8778L36.7365 77.1914V78.8414H38.7365ZM39.569 78.6803L39.949 80.6438L41.569 80.3303V78.6803H39.569ZM39.569 73.0675H41.569V71.4175L39.949 71.1039L39.569 73.0675ZM38.7365 72.9063H36.7365V74.5564L38.3564 74.8699L38.7365 72.9063ZM38.7365 71.961V69.961H36.7365V71.961H38.7365ZM43.9894 72.2403L43.1886 74.073L43.1942 74.0754L43.9894 72.2403ZM44.9777 73.0406L43.3083 74.1421L43.3122 74.148L43.3162 74.154L44.9777 73.0406ZM44.9831 75.5221L43.2985 74.444L43.2937 74.4515L43.2889 74.4591L44.9831 75.5221ZM41.1373 73.1695V71.1695H39.1373V73.1695H41.1373ZM41.1373 75.4845H39.1373V77.4845H41.1373V75.4845ZM43.4308 73.4972L42.0281 74.9228L42.034 74.9286L42.04 74.9344L43.4308 73.4972ZM42.175 77.1803L43.1687 79.4792L46.8404 77.8921L45.8467 75.5933L42.175 77.1803ZM44.5491 80.6331L45.2151 80.7889L46.126 76.894L45.46 76.7382L44.5491 80.6331ZM43.6706 78.8414V79.7813H47.6706V78.8414H43.6706ZM45.6706 77.7813H43.7692V81.7813H45.6706V77.7813ZM45.6328 79.0554L44.4296 75.967L40.7025 77.419L41.9056 80.5073L45.6328 79.0554ZM42.5661 74.693H41.1373V78.693H42.5661V74.693ZM39.1373 76.693V78.6803H43.1373V76.693H39.1373ZM40.7597 80.6443L41.5975 80.8054L42.3529 76.8774L41.515 76.7163L40.7597 80.6443ZM39.9752 78.8414V79.7813H43.9752V78.8414H39.9752ZM41.9752 77.7813H38.7365V81.7813H41.9752V77.7813ZM40.7365 79.7813V78.8414H36.7365V79.7813H40.7365ZM39.1165 80.805L39.949 80.6438L39.1889 76.7167L38.3564 76.8778L39.1165 80.805ZM41.569 78.6803V73.0675H37.569V78.6803H41.569ZM39.949 71.1039L39.1165 70.9428L38.3564 74.8699L39.1889 75.031L39.949 71.1039ZM40.7365 72.9063V71.961H36.7365V72.9063H40.7365ZM38.7365 73.961H42.4425V69.961H38.7365V73.961ZM42.4425 73.961C42.8514 73.961 43.0788 74.025 43.1886 74.073L44.7902 70.4077C44.0478 70.0832 43.2439 69.961 42.4425 69.961V73.961ZM43.1942 74.0754C43.2598 74.1039 43.2903 74.1264 43.3001 74.1343C43.3053 74.1386 43.3074 74.1408 43.3075 74.141C43.3077 74.1412 43.3078 74.1412 43.3083 74.1421L46.6471 71.9392C46.1778 71.228 45.5246 70.7259 44.7846 70.4052L43.1942 74.0754ZM43.3162 74.154C43.31 74.1447 43.31 74.1403 43.3131 74.1514C43.3168 74.1648 43.3268 74.208 43.3268 74.2921H47.3268C47.3268 73.4756 47.1271 72.6555 46.6391 71.9273L43.3162 74.154ZM43.3268 74.2921C43.3268 74.4063 43.3039 74.4356 43.2985 74.444L46.6676 76.6002C47.1205 75.8924 47.3268 75.1017 47.3268 74.2921H43.3268ZM43.2889 74.4591C43.2704 74.4886 43.2335 74.5389 43.1104 74.601L44.9114 78.1726C45.6261 77.8122 46.2373 77.286 46.6772 76.5851L43.2889 74.4591ZM39.1373 73.1695V75.4845H43.1373V73.1695H39.1373ZM41.1373 77.4845H42.4157V73.4845H41.1373V77.4845ZM42.4157 77.4845C43.0932 77.4845 43.9737 77.351 44.7065 76.7408C45.5095 76.0721 45.7638 75.1505 45.7638 74.3619H41.7638C41.7638 74.353 41.7648 74.2547 41.8228 74.1097C41.8857 73.9526 41.9953 73.7932 42.147 73.6669C42.4305 73.4309 42.6369 73.4845 42.4157 73.4845V77.4845ZM45.7638 74.3619C45.7638 73.5587 45.4996 72.716 44.8216 72.06L42.04 74.9344C41.9422 74.8397 41.8631 74.7203 41.8142 74.5932C41.7677 74.4724 41.7638 74.3856 41.7638 74.3619H45.7638ZM44.8335 72.0715C44.1085 71.3582 43.1904 71.1695 42.4425 71.1695V75.1695C42.4999 75.1695 42.4709 75.1773 42.3879 75.1498C42.2956 75.1193 42.1592 75.0518 42.0281 74.9228L44.8335 72.0715ZM42.4425 71.1695H41.1373V75.1695H42.4425V71.1695ZM48.8825 78.8414H50.8825V77.1663L49.2334 76.8724L48.8825 78.8414ZM48.8825 79.7813V81.7813H50.8825V79.7813H48.8825ZM46.2184 79.7813H44.2184V81.7813H46.2184V79.7813ZM46.2184 78.8414L45.9329 76.8619L44.2184 77.1092V78.8414H46.2184ZM46.777 78.7608L47.0625 80.7404L48.245 80.5698L48.6553 79.4478L46.777 78.7608ZM49.2638 71.961V69.961H47.8657L47.3855 71.2741L49.2638 71.961ZM50.8698 71.961L52.7495 71.278L52.271 69.961H50.8698V71.961ZM53.3405 78.7608L51.4607 79.4439L51.8697 80.5694L53.055 80.7404L53.3405 78.7608ZM53.8991 78.8414H55.8991V77.1092L54.1846 76.8619L53.8991 78.8414ZM53.8991 79.7813V81.7813H55.8991V79.7813H53.8991ZM51.235 79.7813H49.235V81.7813H51.235V79.7813ZM51.235 78.8414L50.8841 76.8724L49.235 77.1663V78.8414H51.235ZM51.7775 78.7447L52.1284 80.7137L54.3791 80.3126L53.6823 78.1352L51.7775 78.7447ZM51.4337 77.6705L53.3386 77.061L52.8936 75.6705H51.4337V77.6705ZM48.6837 77.6705V75.6705H47.2238L46.7789 77.061L48.6837 77.6705ZM48.34 78.7447L46.4351 78.1352L45.7384 80.3126L47.9891 80.7137L48.34 78.7447ZM50.0426 73.5992V71.5992H48.5815L48.1373 72.9911L50.0426 73.5992ZM49.9621 73.8517L51.8552 74.4967L51.8615 74.4783L51.8674 74.4597L49.9621 73.8517ZM49.0543 76.5157L47.1612 75.8707L46.26 78.5157H49.0543V76.5157ZM51.0631 76.5157V78.5157H53.8574L52.9563 75.8708L51.0631 76.5157ZM50.15 73.8355L48.2442 74.442L48.2503 74.4613L48.2569 74.4805L50.15 73.8355ZM50.0748 73.5992L51.9807 72.9928L51.5373 71.5992H50.0748V73.5992ZM46.8825 78.8414V79.7813H50.8825V78.8414H46.8825ZM48.8825 77.7813H46.2184V81.7813H48.8825V77.7813ZM48.2184 79.7813V78.8414H44.2184V79.7813H48.2184ZM46.5039 80.8209L47.0625 80.7404L46.4915 76.7813L45.9329 76.8619L46.5039 80.8209ZM48.6553 79.4478L51.1421 72.648L47.3855 71.2741L44.8987 78.0739L48.6553 79.4478ZM49.2638 73.961H50.8698V69.961H49.2638V73.961ZM48.99 72.644L51.4607 79.4439L55.2202 78.0778L52.7495 71.278L48.99 72.644ZM53.055 80.7404L53.6136 80.8209L54.1846 76.8619L53.626 76.7813L53.055 80.7404ZM51.8991 78.8414V79.7813H55.8991V78.8414H51.8991ZM53.8991 77.7813H51.235V81.7813H53.8991V77.7813ZM53.235 79.7813V78.8414H49.235V79.7813H53.235ZM51.5859 80.8104L52.1284 80.7137L51.4266 76.7758L50.8841 76.8724L51.5859 80.8104ZM53.6823 78.1352L53.3386 77.061L49.5289 78.2801L49.8726 79.3543L53.6823 78.1352ZM51.4337 75.6705H48.6837V79.6705H51.4337V75.6705ZM46.7789 77.061L46.4351 78.1352L50.2448 79.3543L50.5886 78.2801L46.7789 77.061ZM47.9891 80.7137L48.5316 80.8104L49.2334 76.8724L48.6909 76.7758L47.9891 80.7137ZM48.1373 72.9911L48.0567 73.2436L51.8674 74.4597L51.9479 74.2073L48.1373 72.9911ZM48.0689 73.2066L47.1612 75.8707L50.9475 77.1608L51.8552 74.4967L48.0689 73.2066ZM49.0543 78.5157H51.0631V74.5157H49.0543V78.5157ZM52.9563 75.8708L52.0432 73.1906L48.2569 74.4805L49.17 77.1607L52.9563 75.8708ZM52.0559 73.2291L51.9807 72.9928L48.169 74.2056L48.2442 74.442L52.0559 73.2291ZM50.0748 71.5992H50.0426V75.5992H50.0748V71.5992ZM59.6945 76.3868L58.7939 74.601L57.1106 75.4499L57.8586 77.1803L59.6945 76.3868ZM60.6881 78.6856L58.8523 79.4792L59.2519 80.4037L60.2327 80.6331L60.6881 78.6856ZM61.3541 78.8414H63.3541V77.2552L61.8096 76.894L61.3541 78.8414ZM61.3541 79.7813V81.7813H63.3541V79.7813H61.3541ZM59.4528 79.7813L57.5892 80.5073L58.0855 81.7813H59.4528V79.7813ZM58.2497 76.693L60.1132 75.967L59.6169 74.693H58.2497V76.693ZM56.8209 76.693V74.693H54.8209V76.693H56.8209ZM56.8209 78.6803H54.8209V80.3323L56.4432 80.6443L56.8209 78.6803ZM57.6588 78.8414H59.6588V77.1894L58.0365 76.8774L57.6588 78.8414ZM57.6588 79.7813V81.7813H59.6588V79.7813H57.6588ZM54.4201 79.7813H52.4201V81.7813H54.4201V79.7813ZM54.4201 78.8414L54.04 76.8778L52.4201 77.1914V78.8414H54.4201ZM55.2526 78.6803L55.6326 80.6438L57.2526 80.3303V78.6803H55.2526ZM55.2526 73.0675H57.2526V71.4175L55.6326 71.1039L55.2526 73.0675ZM54.4201 72.9063H52.4201V74.5564L54.04 74.8699L54.4201 72.9063ZM54.4201 71.961V69.961H52.4201V71.961H54.4201ZM59.673 72.2403L58.8722 74.073L58.8778 74.0754L59.673 72.2403ZM60.6613 73.0406L58.9919 74.1421L58.9958 74.148L58.9998 74.154L60.6613 73.0406ZM60.6666 75.5221L58.9821 74.444L58.9773 74.4515L58.9725 74.4591L60.6666 75.5221ZM56.8209 73.1695V71.1695H54.8209V73.1695H56.8209ZM56.8209 75.4845H54.8209V77.4845H56.8209V75.4845ZM59.1144 73.4972L57.7117 74.9228L57.7176 74.9286L57.7236 74.9344L59.1144 73.4972ZM57.8586 77.1803L58.8523 79.4792L62.524 77.8921L61.5303 75.5933L57.8586 77.1803ZM60.2327 80.6331L60.8987 80.7889L61.8096 76.894L61.1436 76.7382L60.2327 80.6331ZM59.3541 78.8414V79.7813H63.3541V78.8414H59.3541ZM61.3541 77.7813H59.4528V81.7813H61.3541V77.7813ZM61.3164 79.0554L60.1132 75.967L56.3861 77.419L57.5892 80.5073L61.3164 79.0554ZM58.2497 74.693H56.8209V78.693H58.2497V74.693ZM54.8209 76.693V78.6803H58.8209V76.693H54.8209ZM56.4432 80.6443L57.2811 80.8054L58.0365 76.8774L57.1986 76.7163L56.4432 80.6443ZM55.6588 78.8414V79.7813H59.6588V78.8414H55.6588ZM57.6588 77.7813H54.4201V81.7813H57.6588V77.7813ZM56.4201 79.7813V78.8414H52.4201V79.7813H56.4201ZM54.8001 80.805L55.6326 80.6438L54.8725 76.7167L54.04 76.8778L54.8001 80.805ZM57.2526 78.6803V73.0675H53.2526V78.6803H57.2526ZM55.6326 71.1039L54.8001 70.9428L54.04 74.8699L54.8725 75.031L55.6326 71.1039ZM56.4201 72.9063V71.961H52.4201V72.9063H56.4201ZM54.4201 73.961H58.1261V69.961H54.4201V73.961ZM58.1261 73.961C58.535 73.961 58.7624 74.025 58.8722 74.073L60.4738 70.4077C59.7313 70.0832 58.9275 69.961 58.1261 69.961V73.961ZM58.8778 74.0754C58.9433 74.1039 58.9739 74.1264 58.9837 74.1343C58.9889 74.1386 58.9909 74.1408 58.9911 74.141C58.9912 74.1412 58.9914 74.1412 58.9919 74.1421L62.3307 71.9392C61.8614 71.228 61.2082 70.7259 60.4682 70.4052L58.8778 74.0754ZM58.9998 74.154C58.9936 74.1447 58.9936 74.1403 58.9967 74.1514C59.0004 74.1648 59.0104 74.208 59.0104 74.2921H63.0104C63.0104 73.4756 62.8107 72.6555 62.3227 71.9273L58.9998 74.154ZM59.0104 74.2921C59.0104 74.4063 58.9875 74.4356 58.9821 74.444L62.3512 76.6002C62.8041 75.8924 63.0104 75.1017 63.0104 74.2921H59.0104ZM58.9725 74.4591C58.954 74.4886 58.9171 74.5389 58.7939 74.601L60.595 78.1726C61.3097 77.8122 61.9209 77.286 62.3608 76.5851L58.9725 74.4591ZM54.8209 73.1695V75.4845H58.8209V73.1695H54.8209ZM56.8209 77.4845H58.0993V73.4845H56.8209V77.4845ZM58.0993 77.4845C58.7768 77.4845 59.6573 77.351 60.3901 76.7408C61.1931 76.0721 61.4474 75.1505 61.4474 74.3619H57.4474C57.4474 74.353 57.4484 74.2547 57.5064 74.1097C57.5693 73.9526 57.6789 73.7932 57.8306 73.6669C58.1141 73.4309 58.3205 73.4845 58.0993 73.4845V77.4845ZM61.4474 74.3619C61.4474 73.5587 61.1832 72.716 60.5052 72.06L57.7236 74.9344C57.6258 74.8397 57.5467 74.7203 57.4978 74.5932C57.4513 74.4724 57.4474 74.3856 57.4474 74.3619H61.4474ZM60.5171 72.0715C59.7921 71.3582 58.874 71.1695 58.1261 71.1695V75.1695C58.1835 75.1695 58.1544 75.1773 58.0715 75.1498C57.9792 75.1193 57.8428 75.0518 57.7117 74.9228L60.5171 72.0715ZM58.1261 71.1695H56.8209V75.1695H58.1261V71.1695ZM68.1701 77.6437H70.1701V75.6437H68.1701V77.6437ZM68.1701 79.7813V81.7813H70.1701V79.7813H68.1701ZM61.9826 79.7813H59.9826V81.7813H61.9826V79.7813ZM61.9826 78.8414L61.6025 76.8778L59.9826 77.1914V78.8414H61.9826ZM62.8151 78.6803L63.1951 80.6438L64.8151 80.3303V78.6803H62.8151ZM62.8151 73.0675H64.8151V71.4175L63.1951 71.1039L62.8151 73.0675ZM61.9826 72.9063H59.9826V74.5564L61.6025 74.8699L61.9826 72.9063ZM61.9826 71.961V69.961H59.9826V71.961H61.9826ZM68.0519 71.961H70.0519V69.961H68.0519V71.961ZM68.0519 74.0719V76.0719H70.0519V74.0719H68.0519ZM66.8488 74.0719L64.8547 74.2262L64.9976 76.0719H66.8488V74.0719ZM66.7789 73.1695L68.773 73.0152L68.6302 71.1695H66.7789V73.1695ZM64.3834 73.1695V71.1695H62.3834V73.1695H64.3834ZM64.3834 75.1354H62.3834V77.1354H64.3834V75.1354ZM67.0314 75.1354H69.0314V73.1354H67.0314V75.1354ZM67.0314 76.3438V78.3438H69.0314V76.3438H67.0314ZM64.3834 76.3438V74.3438H62.3834V76.3438H64.3834ZM64.3834 78.5782H62.3834V80.5782H64.3834V78.5782ZM66.9079 78.5782V80.5782H68.764L68.9023 78.7272L66.9079 78.5782ZM66.9777 77.6437V75.6437H65.1215L64.9832 77.4946L66.9777 77.6437ZM66.1701 77.6437V79.7813H70.1701V77.6437H66.1701ZM68.1701 77.7813H61.9826V81.7813H68.1701V77.7813ZM63.9826 79.7813V78.8414H59.9826V79.7813H63.9826ZM62.3626 80.805L63.1951 80.6438L62.435 76.7167L61.6025 76.8778L62.3626 80.805ZM64.8151 78.6803V73.0675H60.8151V78.6803H64.8151ZM63.1951 71.1039L62.3626 70.9428L61.6025 74.8699L62.435 75.031L63.1951 71.1039ZM63.9826 72.9063V71.961H59.9826V72.9063H63.9826ZM61.9826 73.961H68.0519V69.961H61.9826V73.961ZM66.0519 71.961V74.0719H70.0519V71.961H66.0519ZM68.0519 72.0719H66.8488V76.0719H68.0519V72.0719ZM68.8428 73.9176L68.773 73.0152L64.7849 73.3238L64.8547 74.2262L68.8428 73.9176ZM66.7789 71.1695H64.3834V75.1695H66.7789V71.1695ZM62.3834 73.1695V75.1354H66.3834V73.1695H62.3834ZM64.3834 77.1354H67.0314V73.1354H64.3834V77.1354ZM65.0314 75.1354V76.3438H69.0314V75.1354H65.0314ZM67.0314 74.3438H64.3834V78.3438H67.0314V74.3438ZM62.3834 76.3438V78.5782H66.3834V76.3438H62.3834ZM64.3834 80.5782H66.9079V76.5782H64.3834V80.5782ZM68.9023 78.7272L68.9721 77.7927L64.9832 77.4946L64.9134 78.4292L68.9023 78.7272ZM66.9777 79.6437H68.1701V75.6437H66.9777V79.6437Z" fill="#150E0B" mask="url(#path-9-outside-1_18_44)"/>
</svg>
