<svg width="108" height="108" viewBox="0 0 108 108" fill="none" xmlns="http://www.w3.org/2000/svg">
<circle cx="54" cy="54" r="51" fill="#9B624A" stroke="#150E0B" stroke-width="6"/>
<path d="M28.2478 39.182V40.4268C28.2478 47.4672 28.2478 50.99 30.4361 53.1758C32.6219 55.3641 36.1446 55.3641 43.1851 55.3641C46.4812 55.2844 53.1433 56.6089 58.7099 60.7589C60.5855 62.0031 62.7633 62.7155 65.0115 62.8203C67.2598 62.9251 69.4944 62.4183 71.4776 61.354C73.4607 60.2896 75.1181 58.7074 76.2735 56.7759C77.4289 54.8444 78.0389 52.6357 78.0387 50.385V40.4268" fill="#34241E"/>
<path d="M28.2478 39.182V40.4268C28.2478 47.4672 28.2478 50.99 30.4361 53.1758C32.6219 55.3641 36.1446 55.3641 43.1851 55.3641C46.4812 55.2844 53.1433 56.6089 58.7099 60.7589C60.5855 62.0031 62.7633 62.7155 65.0115 62.8203C67.2598 62.9251 69.4944 62.4183 71.4776 61.354C73.4607 60.2896 75.1181 58.7074 76.2735 56.7759C77.4289 54.8444 78.0389 52.6357 78.0387 50.385V40.4268" stroke="#150E0B" stroke-width="2" stroke-linecap="round" stroke-linejoin="round"/>
<path d="M65.591 52.8746C67.9027 52.8746 70.1687 52.2308 72.1352 51.0155C74.1016 49.8002 75.6908 48.0613 76.7246 45.9936C77.7584 43.926 78.196 41.6113 77.9884 39.309C77.7808 37.0066 76.9362 34.8075 75.5492 32.9582C70.2589 25.9128 63.1015 23 53.1433 23C43.1851 23 28.2478 30.1326 28.2478 39.1821C28.2478 40.8327 28.9035 42.4158 30.0707 43.583C31.2379 44.7502 32.821 45.4059 34.4717 45.4059H43.1851C46.4812 45.3238 53.1433 46.6507 58.7099 50.8008C60.7498 52.1535 63.1433 52.8749 65.591 52.8746Z" fill="#6B4B3E" stroke="#150E0B" stroke-width="2" stroke-linecap="round" stroke-linejoin="round"/>
<path d="M69.3253 40.4268C69.3253 41.4172 68.9319 42.3671 68.2316 43.0674C67.5313 43.7677 66.5814 44.1611 65.591 44.1611C64.6006 44.1611 63.6508 43.7677 62.9504 43.0674C62.2501 42.3671 61.8567 41.4172 61.8567 40.4268C61.8567 39.4364 62.2501 38.4866 62.9504 37.7863C63.6508 37.0859 64.6006 36.6925 65.591 36.6925C66.5814 36.6925 67.5313 37.0859 68.2316 37.7863C68.9319 38.4866 69.3253 39.4364 69.3253 40.4268Z" fill="#DFD6B9" stroke="#150E0B" stroke-width="2" stroke-linecap="round" stroke-linejoin="round"/>
<path d="M37.0907 39.2518L50.2355 30.4089" stroke="#150E0C" stroke-width="2" stroke-linecap="round"/>
<path d="M43.7826 39.2518L56.9274 30.4089" stroke="#150E0C" stroke-width="2" stroke-linecap="round"/>
<path d="M51.6695 39.2518L64.8143 30.4089" stroke="#150E0C" stroke-width="2" stroke-linecap="round"/>
<mask id="path-9-outside-1_18_33" maskUnits="userSpaceOnUse" x="18" y="69.7813" width="71" height="13" fill="black">
<rect fill="white" x="18" y="69.7813" width="71" height="13"/>
<path d="M25.7008 75.232L24.2023 79.7813H22.7736L20.9581 72.9869L20.1579 72.9063V71.961H23.3053V72.9063L22.4621 73.0299L23.3805 76.8326L23.547 77.5309H23.5792L23.778 76.8326L25.3248 71.961H26.4796L28.0856 76.9669L28.2736 77.5846H28.3058L28.4669 76.9669L29.4176 73.0299L28.526 72.9063V71.961H31.6144V72.9063L30.8678 72.9869L29.0309 79.7813H27.6129L26.1305 75.2105L25.9425 74.566H25.9103L25.7008 75.232ZM38.2907 77.6437V79.7813H32.1032V78.8414L32.9357 78.6803V73.0675L32.1032 72.9063V71.961H38.1725V74.0719H36.9694L36.8996 73.1695H34.504V75.1354H37.152V76.3438H34.504V78.5782H37.0285L37.0983 77.6437H38.2907ZM45.0099 77.4342V79.7813H39.1286V78.8414L39.9611 78.6803V73.0675L39.1286 72.9063V71.961H42.4748V72.9063L41.5294 73.0675V78.5782H43.737L43.8122 77.4342H45.0099ZM51.4552 77.4342V79.7813H45.5739V78.8414L46.4064 78.6803V73.0675L45.5739 72.9063V71.961H48.9201V72.9063L47.9748 73.0675V78.5782H50.1823L50.2575 77.4342H51.4552ZM55.4513 75.8336V77.0421H52.422V75.8336H55.4513ZM59.8556 79.7813H56.402V78.8414L57.2453 78.6642V73.089L56.402 72.9063V71.961H59.8341C60.5359 71.961 61.1518 72.124 61.6818 72.4498C62.2153 72.7757 62.6307 73.2286 62.9279 73.8087C63.2287 74.3888 63.379 75.053 63.379 75.8014V75.9464C63.379 76.6912 63.2322 77.35 62.9386 77.923C62.645 78.503 62.2314 78.9578 61.6979 79.2872C61.1679 79.6166 60.5539 79.7813 59.8556 79.7813ZM59.775 73.1642H58.8136V78.5836H59.775C60.2119 78.5836 60.5789 78.469 60.8761 78.2398C61.1769 78.0143 61.4061 77.7027 61.5636 77.3053C61.7248 76.9078 61.8053 76.4549 61.8053 75.9464V75.796C61.8053 75.284 61.7265 74.8274 61.569 74.4264C61.4079 74.0325 61.1769 73.7245 60.8761 73.5025C60.5753 73.277 60.2083 73.1642 59.775 73.1642ZM67.6437 79.8941C67.1173 79.8941 66.6375 79.7957 66.2042 79.5987C65.771 79.4018 65.3986 79.1243 65.0871 78.7662C64.772 78.4117 64.5303 77.9946 64.362 77.5147C64.1937 77.0313 64.1095 76.5032 64.1095 75.9303V75.8121C64.1095 75.2428 64.1937 74.7182 64.362 74.2384C64.5303 73.755 64.7702 73.3342 65.0817 72.9762C65.3932 72.6181 65.7656 72.3406 66.1989 72.1437C66.6321 71.9467 67.112 71.8482 67.6383 71.8482C68.1683 71.8482 68.6517 71.9467 69.0885 72.1437C69.5254 72.3406 69.9013 72.6181 70.2164 72.9762C70.5316 73.3342 70.7733 73.755 70.9415 74.2384C71.1134 74.7182 71.1994 75.2428 71.1994 75.8121V75.9303C71.1994 76.5032 71.1134 77.0313 70.9415 77.5147C70.7733 77.9946 70.5316 78.4117 70.2164 78.7662C69.9013 79.1243 69.5254 79.4018 69.0885 79.5987C68.6553 79.7957 68.1736 79.8941 67.6437 79.8941ZM67.6437 78.6749C68.0877 78.6749 68.4565 78.5603 68.7501 78.3312C69.0438 78.102 69.264 77.7815 69.4108 77.3697C69.5612 76.9579 69.6364 76.4781 69.6364 75.9303V75.8014C69.6364 75.2607 69.5612 74.7844 69.4108 74.3727C69.2604 73.9645 69.0366 73.6458 68.7394 73.4166C68.4458 73.1874 68.0788 73.0729 67.6383 73.0729C67.2015 73.0729 66.838 73.1856 66.548 73.4112C66.258 73.6404 66.0395 73.9591 65.8927 74.3673C65.7495 74.7755 65.6779 75.2535 65.6779 75.8014V75.9303C65.6779 76.471 65.7513 76.9508 65.8981 77.3697C66.0449 77.7815 66.2633 78.102 66.5534 78.3312C66.8434 78.5603 67.2068 78.6749 67.6437 78.6749ZM75.0665 78.8414V79.7813H71.8278V78.8414L72.6603 78.6803V73.0675L71.8278 72.9063V71.961H74.2501L77.6554 77.3858L77.6876 77.3805V73.0675L76.6886 72.9063V71.961H79.9274V72.9063L79.0895 73.0675V79.7813H77.5748L74.0944 74.4103L74.0622 74.4156V78.6803L75.0665 78.8414ZM86.6305 77.6437V79.7813H80.443V78.8414L81.2755 78.6803V73.0675L80.443 72.9063V71.961H86.5123V74.0719H85.3092L85.2394 73.1695H82.8439V75.1354H85.4918V76.3438H82.8439V78.5782H85.3683L85.4381 77.6437H86.6305Z"/>
</mask>
<path d="M25.7008 75.232L24.2023 79.7813H22.7736L20.9581 72.9869L20.1579 72.9063V71.961H23.3053V72.9063L22.4621 73.0299L23.3805 76.8326L23.547 77.5309H23.5792L23.778 76.8326L25.3248 71.961H26.4796L28.0856 76.9669L28.2736 77.5846H28.3058L28.4669 76.9669L29.4176 73.0299L28.526 72.9063V71.961H31.6144V72.9063L30.8678 72.9869L29.0309 79.7813H27.6129L26.1305 75.2105L25.9425 74.566H25.9103L25.7008 75.232ZM38.2907 77.6437V79.7813H32.1032V78.8414L32.9357 78.6803V73.0675L32.1032 72.9063V71.961H38.1725V74.0719H36.9694L36.8996 73.1695H34.504V75.1354H37.152V76.3438H34.504V78.5782H37.0285L37.0983 77.6437H38.2907ZM45.0099 77.4342V79.7813H39.1286V78.8414L39.9611 78.6803V73.0675L39.1286 72.9063V71.961H42.4748V72.9063L41.5294 73.0675V78.5782H43.737L43.8122 77.4342H45.0099ZM51.4552 77.4342V79.7813H45.5739V78.8414L46.4064 78.6803V73.0675L45.5739 72.9063V71.961H48.9201V72.9063L47.9748 73.0675V78.5782H50.1823L50.2575 77.4342H51.4552ZM55.4513 75.8336V77.0421H52.422V75.8336H55.4513ZM59.8556 79.7813H56.402V78.8414L57.2453 78.6642V73.089L56.402 72.9063V71.961H59.8341C60.5359 71.961 61.1518 72.124 61.6818 72.4498C62.2153 72.7757 62.6307 73.2286 62.9279 73.8087C63.2287 74.3888 63.379 75.053 63.379 75.8014V75.9464C63.379 76.6912 63.2322 77.35 62.9386 77.923C62.645 78.503 62.2314 78.9578 61.6979 79.2872C61.1679 79.6166 60.5539 79.7813 59.8556 79.7813ZM59.775 73.1642H58.8136V78.5836H59.775C60.2119 78.5836 60.5789 78.469 60.8761 78.2398C61.1769 78.0143 61.4061 77.7027 61.5636 77.3053C61.7248 76.9078 61.8053 76.4549 61.8053 75.9464V75.796C61.8053 75.284 61.7265 74.8274 61.569 74.4264C61.4079 74.0325 61.1769 73.7245 60.8761 73.5025C60.5753 73.277 60.2083 73.1642 59.775 73.1642ZM67.6437 79.8941C67.1173 79.8941 66.6375 79.7957 66.2042 79.5987C65.771 79.4018 65.3986 79.1243 65.0871 78.7662C64.772 78.4117 64.5303 77.9946 64.362 77.5147C64.1937 77.0313 64.1095 76.5032 64.1095 75.9303V75.8121C64.1095 75.2428 64.1937 74.7182 64.362 74.2384C64.5303 73.755 64.7702 73.3342 65.0817 72.9762C65.3932 72.6181 65.7656 72.3406 66.1989 72.1437C66.6321 71.9467 67.112 71.8482 67.6383 71.8482C68.1683 71.8482 68.6517 71.9467 69.0885 72.1437C69.5254 72.3406 69.9013 72.6181 70.2164 72.9762C70.5316 73.3342 70.7733 73.755 70.9415 74.2384C71.1134 74.7182 71.1994 75.2428 71.1994 75.8121V75.9303C71.1994 76.5032 71.1134 77.0313 70.9415 77.5147C70.7733 77.9946 70.5316 78.4117 70.2164 78.7662C69.9013 79.1243 69.5254 79.4018 69.0885 79.5987C68.6553 79.7957 68.1736 79.8941 67.6437 79.8941ZM67.6437 78.6749C68.0877 78.6749 68.4565 78.5603 68.7501 78.3312C69.0438 78.102 69.264 77.7815 69.4108 77.3697C69.5612 76.9579 69.6364 76.4781 69.6364 75.9303V75.8014C69.6364 75.2607 69.5612 74.7844 69.4108 74.3727C69.2604 73.9645 69.0366 73.6458 68.7394 73.4166C68.4458 73.1874 68.0788 73.0729 67.6383 73.0729C67.2015 73.0729 66.838 73.1856 66.548 73.4112C66.258 73.6404 66.0395 73.9591 65.8927 74.3673C65.7495 74.7755 65.6779 75.2535 65.6779 75.8014V75.9303C65.6779 76.471 65.7513 76.9508 65.8981 77.3697C66.0449 77.7815 66.2633 78.102 66.5534 78.3312C66.8434 78.5603 67.2068 78.6749 67.6437 78.6749ZM75.0665 78.8414V79.7813H71.8278V78.8414L72.6603 78.6803V73.0675L71.8278 72.9063V71.961H74.2501L77.6554 77.3858L77.6876 77.3805V73.0675L76.6886 72.9063V71.961H79.9274V72.9063L79.0895 73.0675V79.7813H77.5748L74.0944 74.4103L74.0622 74.4156V78.6803L75.0665 78.8414ZM86.6305 77.6437V79.7813H80.443V78.8414L81.2755 78.6803V73.0675L80.443 72.9063V71.961H86.5123V74.0719H85.3092L85.2394 73.1695H82.8439V75.1354H85.4918V76.3438H82.8439V78.5782H85.3683L85.4381 77.6437H86.6305Z" fill="#FFE8B6"/>
<path d="M25.7008 75.232L27.6004 75.8578L27.6046 75.8449L27.6087 75.8321L25.7008 75.232ZM24.2023 79.7813V81.7813H25.6492L26.1019 80.4071L24.2023 79.7813ZM22.7736 79.7813L20.8414 80.2976L21.2378 81.7813H22.7736V79.7813ZM20.9581 72.9869L22.8904 72.4706L22.5336 71.1354L21.1585 70.997L20.9581 72.9869ZM20.1579 72.9063H18.1579V74.7151L19.9575 74.8963L20.1579 72.9063ZM20.1579 71.961V69.961H18.1579V71.961H20.1579ZM23.3053 71.961H25.3053V69.961H23.3053V71.961ZM23.3053 72.9063L23.5952 74.8852L25.3053 74.6347V72.9063H23.3053ZM22.4621 73.0299L22.1722 71.051L20.0033 71.3687L20.518 73.4994L22.4621 73.0299ZM23.3805 76.8326L25.326 76.3687L25.3246 76.3631L23.3805 76.8326ZM23.547 77.5309L21.6016 77.9948L21.9679 79.5309H23.547V77.5309ZM23.5792 77.5309V79.5309H25.0894L25.5028 78.0783L23.5792 77.5309ZM23.778 76.8326L21.8718 76.2273L21.8626 76.2561L21.8544 76.2851L23.778 76.8326ZM25.3248 71.961V69.961H23.8615L23.4186 71.3558L25.3248 71.961ZM26.4796 71.961L28.384 71.3501L27.9384 69.961H26.4796V71.961ZM28.0856 76.9669L29.9989 76.3846L29.9946 76.3702L29.99 76.3559L28.0856 76.9669ZM28.2736 77.5846L26.3602 78.1669L26.7917 79.5846H28.2736V77.5846ZM28.3058 77.5846V79.5846H29.851L30.241 78.0894L28.3058 77.5846ZM28.4669 76.9669L30.4022 77.4717L30.4068 77.4541L30.4111 77.4363L28.4669 76.9669ZM29.4176 73.0299L31.3617 73.4993L31.8803 71.352L29.6921 71.0488L29.4176 73.0299ZM28.526 72.9063H26.526V74.6483L28.2515 74.8874L28.526 72.9063ZM28.526 71.961V69.961H26.526V71.961H28.526ZM31.6144 71.961H33.6144V69.961H31.6144V71.961ZM31.6144 72.9063L31.829 74.8948L33.6144 74.7021V72.9063H31.6144ZM30.8678 72.9869L30.6532 70.9985L29.2939 71.1451L28.9371 72.4649L30.8678 72.9869ZM29.0309 79.7813V81.7813H30.562L30.9616 80.3033L29.0309 79.7813ZM27.6129 79.7813L25.7105 80.3984L26.159 81.7813H27.6129V79.7813ZM26.1305 75.2105L24.2105 75.7705L24.2189 75.7992L24.2281 75.8276L26.1305 75.2105ZM25.9425 74.566L27.8625 74.006L27.4425 72.566H25.9425V74.566ZM25.9103 74.566V72.566H24.4427L24.0024 73.966L25.9103 74.566ZM23.8012 74.6063L22.3027 79.1556L26.1019 80.4071L27.6004 75.8578L23.8012 74.6063ZM24.2023 77.7813H22.7736V81.7813H24.2023V77.7813ZM24.7058 79.2651L22.8904 72.4706L19.0259 73.5032L20.8414 80.2976L24.7058 79.2651ZM21.1585 70.997L20.3582 70.9164L19.9575 74.8963L20.7578 74.9769L21.1585 70.997ZM22.1579 72.9063V71.961H18.1579V72.9063H22.1579ZM20.1579 73.961H23.3053V69.961H20.1579V73.961ZM21.3053 71.961V72.9063H25.3053V71.961H21.3053ZM23.0154 70.9275L22.1722 71.051L22.752 75.0088L23.5952 74.8852L23.0154 70.9275ZM20.518 73.4994L21.4364 77.3022L25.3246 76.3631L24.4062 72.5603L20.518 73.4994ZM21.4351 77.2965L21.6016 77.9948L25.4925 77.0669L25.326 76.3687L21.4351 77.2965ZM23.547 79.5309H23.5792V75.5309H23.547V79.5309ZM25.5028 78.0783L25.7016 77.3801L21.8544 76.2851L21.6556 76.9834L25.5028 78.0783ZM25.6842 77.4379L27.2311 72.5663L23.4186 71.3558L21.8718 76.2273L25.6842 77.4379ZM25.3248 73.961H26.4796V69.961H25.3248V73.961ZM24.5752 72.572L26.1812 77.5779L29.99 76.3559L28.384 71.3501L24.5752 72.572ZM26.1722 77.5492L26.3602 78.1669L30.1869 77.0022L29.9989 76.3846L26.1722 77.5492ZM28.2736 79.5846H28.3058V75.5846H28.2736V79.5846ZM30.241 78.0894L30.4022 77.4717L26.5317 76.4621L26.3706 77.0797L30.241 78.0894ZM30.4111 77.4363L31.3617 73.4993L27.4735 72.5604L26.5228 76.4974L30.4111 77.4363ZM29.6921 71.0488L28.8005 70.9253L28.2515 74.8874L29.1431 75.011L29.6921 71.0488ZM30.526 72.9063V71.961H26.526V72.9063H30.526ZM28.526 73.961H31.6144V69.961H28.526V73.961ZM29.6144 71.961V72.9063H33.6144V71.961H29.6144ZM31.3998 70.9179L30.6532 70.9985L31.0824 74.9754L31.829 74.8948L31.3998 70.9179ZM28.9371 72.4649L27.1002 79.2594L30.9616 80.3033L32.7985 73.5089L28.9371 72.4649ZM29.0309 77.7813H27.6129V81.7813H29.0309V77.7813ZM29.5154 79.1643L28.033 74.5935L24.2281 75.8276L25.7105 80.3984L29.5154 79.1643ZM28.0505 74.6505L27.8625 74.006L24.0225 75.126L24.2105 75.7705L28.0505 74.6505ZM25.9425 72.566H25.9103V76.566H25.9425V72.566ZM24.0024 73.966L23.793 74.632L27.6087 75.8321L27.8182 75.1661L24.0024 73.966ZM38.2907 77.6437H40.2907V75.6437H38.2907V77.6437ZM38.2907 79.7813V81.7813H40.2907V79.7813H38.2907ZM32.1032 79.7813H30.1032V81.7813H32.1032V79.7813ZM32.1032 78.8414L31.7231 76.8778L30.1032 77.1914V78.8414H32.1032ZM32.9357 78.6803L33.3157 80.6438L34.9357 80.3303V78.6803H32.9357ZM32.9357 73.0675H34.9357V71.4175L33.3157 71.1039L32.9357 73.0675ZM32.1032 72.9063H30.1032V74.5564L31.7231 74.8699L32.1032 72.9063ZM32.1032 71.961V69.961H30.1032V71.961H32.1032ZM38.1725 71.961H40.1725V69.961H38.1725V71.961ZM38.1725 74.0719V76.0719H40.1725V74.0719H38.1725ZM36.9694 74.0719L34.9753 74.2262L35.1182 76.0719H36.9694V74.0719ZM36.8996 73.1695L38.8936 73.0152L38.7508 71.1695H36.8996V73.1695ZM34.504 73.1695V71.1695H32.504V73.1695H34.504ZM34.504 75.1354H32.504V77.1354H34.504V75.1354ZM37.152 75.1354H39.152V73.1354H37.152V75.1354ZM37.152 76.3438V78.3438H39.152V76.3438H37.152ZM34.504 76.3438V74.3438H32.504V76.3438H34.504ZM34.504 78.5782H32.504V80.5782H34.504V78.5782ZM37.0285 78.5782V80.5782H38.8846L39.0229 78.7272L37.0285 78.5782ZM37.0983 77.6437V75.6437H35.2421L35.1038 77.4946L37.0983 77.6437ZM36.2907 77.6437V79.7813H40.2907V77.6437H36.2907ZM38.2907 77.7813H32.1032V81.7813H38.2907V77.7813ZM34.1032 79.7813V78.8414H30.1032V79.7813H34.1032ZM32.4832 80.805L33.3157 80.6438L32.5556 76.7167L31.7231 76.8778L32.4832 80.805ZM34.9357 78.6803V73.0675H30.9357V78.6803H34.9357ZM33.3157 71.1039L32.4832 70.9428L31.7231 74.8699L32.5556 75.031L33.3157 71.1039ZM34.1032 72.9063V71.961H30.1032V72.9063H34.1032ZM32.1032 73.961H38.1725V69.961H32.1032V73.961ZM36.1725 71.961V74.0719H40.1725V71.961H36.1725ZM38.1725 72.0719H36.9694V76.0719H38.1725V72.0719ZM38.9634 73.9176L38.8936 73.0152L34.9055 73.3238L34.9753 74.2262L38.9634 73.9176ZM36.8996 71.1695H34.504V75.1695H36.8996V71.1695ZM32.504 73.1695V75.1354H36.504V73.1695H32.504ZM34.504 77.1354H37.152V73.1354H34.504V77.1354ZM35.152 75.1354V76.3438H39.152V75.1354H35.152ZM37.152 74.3438H34.504V78.3438H37.152V74.3438ZM32.504 76.3438V78.5782H36.504V76.3438H32.504ZM34.504 80.5782H37.0285V76.5782H34.504V80.5782ZM39.0229 78.7272L39.0927 77.7927L35.1038 77.4946L35.034 78.4292L39.0229 78.7272ZM37.0983 79.6437H38.2907V75.6437H37.0983V79.6437ZM45.0099 77.4342H47.0099V75.4342H45.0099V77.4342ZM45.0099 79.7813V81.7813H47.0099V79.7813H45.0099ZM39.1286 79.7813H37.1286V81.7813H39.1286V79.7813ZM39.1286 78.8414L38.7485 76.8778L37.1286 77.1914V78.8414H39.1286ZM39.9611 78.6803L40.3411 80.6438L41.9611 80.3303V78.6803H39.9611ZM39.9611 73.0675H41.9611V71.4175L40.3411 71.1039L39.9611 73.0675ZM39.1286 72.9063H37.1286V74.5564L38.7485 74.8699L39.1286 72.9063ZM39.1286 71.961V69.961H37.1286V71.961H39.1286ZM42.4748 71.961H44.4748V69.961H42.4748V71.961ZM42.4748 72.9063L42.8108 74.8779L44.4748 74.5943V72.9063H42.4748ZM41.5294 73.0675L41.1934 71.0959L39.5294 71.3795V73.0675H41.5294ZM41.5294 78.5782H39.5294V80.5782H41.5294V78.5782ZM43.737 78.5782V80.5782H45.6098L45.7327 78.7094L43.737 78.5782ZM43.8122 77.4342V75.4342H41.9393L41.8165 77.303L43.8122 77.4342ZM43.0099 77.4342V79.7813H47.0099V77.4342H43.0099ZM45.0099 77.7813H39.1286V81.7813H45.0099V77.7813ZM41.1286 79.7813V78.8414H37.1286V79.7813H41.1286ZM39.5086 80.805L40.3411 80.6438L39.581 76.7167L38.7485 76.8778L39.5086 80.805ZM41.9611 78.6803V73.0675H37.9611V78.6803H41.9611ZM40.3411 71.1039L39.5086 70.9428L38.7485 74.8699L39.581 75.031L40.3411 71.1039ZM41.1286 72.9063V71.961H37.1286V72.9063H41.1286ZM39.1286 73.961H42.4748V69.961H39.1286V73.961ZM40.4748 71.961V72.9063H44.4748V71.961H40.4748ZM42.1387 70.9348L41.1934 71.0959L41.8655 75.039L42.8108 74.8779L42.1387 70.9348ZM39.5294 73.0675V78.5782H43.5294V73.0675H39.5294ZM41.5294 80.5782H43.737V76.5782H41.5294V80.5782ZM45.7327 78.7094L45.8078 77.5654L41.8165 77.303L41.7413 78.4471L45.7327 78.7094ZM43.8122 79.4342H45.0099V75.4342H43.8122V79.4342ZM51.4552 77.4342H53.4552V75.4342H51.4552V77.4342ZM51.4552 79.7813V81.7813H53.4552V79.7813H51.4552ZM45.5739 79.7813H43.5739V81.7813H45.5739V79.7813ZM45.5739 78.8414L45.1938 76.8778L43.5739 77.1914V78.8414H45.5739ZM46.4064 78.6803L46.7864 80.6438L48.4064 80.3303V78.6803H46.4064ZM46.4064 73.0675H48.4064V71.4175L46.7864 71.1039L46.4064 73.0675ZM45.5739 72.9063H43.5739V74.5564L45.1938 74.8699L45.5739 72.9063ZM45.5739 71.961V69.961H43.5739V71.961H45.5739ZM48.9201 71.961H50.9201V69.961H48.9201V71.961ZM48.9201 72.9063L49.2561 74.8779L50.9201 74.5943V72.9063H48.9201ZM47.9748 73.0675L47.6387 71.0959L45.9748 71.3795V73.0675H47.9748ZM47.9748 78.5782H45.9748V80.5782H47.9748V78.5782ZM50.1823 78.5782V80.5782H52.0551L52.178 78.7094L50.1823 78.5782ZM50.2575 77.4342V75.4342H48.3846L48.2618 77.303L50.2575 77.4342ZM49.4552 77.4342V79.7813H53.4552V77.4342H49.4552ZM51.4552 77.7813H45.5739V81.7813H51.4552V77.7813ZM47.5739 79.7813V78.8414H43.5739V79.7813H47.5739ZM45.9539 80.805L46.7864 80.6438L46.0263 76.7167L45.1938 76.8778L45.9539 80.805ZM48.4064 78.6803V73.0675H44.4064V78.6803H48.4064ZM46.7864 71.1039L45.9539 70.9428L45.1938 74.8699L46.0263 75.031L46.7864 71.1039ZM47.5739 72.9063V71.961H43.5739V72.9063H47.5739ZM45.5739 73.961H48.9201V69.961H45.5739V73.961ZM46.9201 71.961V72.9063H50.9201V71.961H46.9201ZM48.584 70.9348L47.6387 71.0959L48.3108 75.039L49.2561 74.8779L48.584 70.9348ZM45.9748 73.0675V78.5782H49.9748V73.0675H45.9748ZM47.9748 80.5782H50.1823V76.5782H47.9748V80.5782ZM52.178 78.7094L52.2532 77.5654L48.2618 77.303L48.1866 78.4471L52.178 78.7094ZM50.2575 79.4342H51.4552V75.4342H50.2575V79.4342ZM55.4513 75.8336H57.4513V73.8336H55.4513V75.8336ZM55.4513 77.0421V79.0421H57.4513V77.0421H55.4513ZM52.422 77.0421H50.422V79.0421H52.422V77.0421ZM52.422 75.8336V73.8336H50.422V75.8336H52.422ZM53.4513 75.8336V77.0421H57.4513V75.8336H53.4513ZM55.4513 75.0421H52.422V79.0421H55.4513V75.0421ZM54.422 77.0421V75.8336H50.422V77.0421H54.422ZM52.422 77.8336H55.4513V73.8336H52.422V77.8336ZM56.402 79.7813H54.402V81.7813H56.402V79.7813ZM56.402 78.8414L55.9906 76.8842L54.402 77.2181V78.8414H56.402ZM57.2453 78.6642L57.6567 80.6214L59.2453 80.2875V78.6642H57.2453ZM57.2453 73.089H59.2453V71.4757L57.6686 71.1343L57.2453 73.089ZM56.402 72.9063H54.402V74.5196L55.9787 74.861L56.402 72.9063ZM56.402 71.961V69.961H54.402V71.961H56.402ZM61.6818 72.4498L60.6342 74.1535L60.6393 74.1567L61.6818 72.4498ZM62.9279 73.8087L61.1479 74.7207L61.1524 74.7293L62.9279 73.8087ZM62.9386 77.923L61.1587 77.0108L61.1542 77.0197L62.9386 77.923ZM61.6979 79.2872L60.6471 77.5855L60.642 77.5886L61.6979 79.2872ZM58.8136 73.1642V71.1642H56.8136V73.1642H58.8136ZM58.8136 78.5836H56.8136V80.5836H58.8136V78.5836ZM60.8761 78.2398L59.6761 76.6398L59.6654 76.6479L59.6549 76.656L60.8761 78.2398ZM61.5636 77.3053L59.7101 76.5539L59.7072 76.5611L59.7044 76.5683L61.5636 77.3053ZM61.569 74.4264L63.4305 73.6951L63.4254 73.682L63.4201 73.6691L61.569 74.4264ZM60.8761 73.5025L59.6761 75.1025L59.6822 75.1071L59.6884 75.1117L60.8761 73.5025ZM59.8556 77.7813H56.402V81.7813H59.8556V77.7813ZM58.402 79.7813V78.8414H54.402V79.7813H58.402ZM56.8134 80.7986L57.6567 80.6214L56.8339 76.7069L55.9906 76.8842L56.8134 80.7986ZM59.2453 78.6642V73.089H55.2453V78.6642H59.2453ZM57.6686 71.1343L56.8253 70.9517L55.9787 74.861L56.8219 75.0437L57.6686 71.1343ZM58.402 72.9063V71.961H54.402V72.9063H58.402ZM56.402 73.961H59.8341V69.961H56.402V73.961ZM59.8341 73.961C60.2147 73.961 60.4583 74.0454 60.6342 74.1535L62.7293 70.7461C61.8453 70.2026 60.8572 69.961 59.8341 69.961V73.961ZM60.6393 74.1567C60.8448 74.2821 61.0112 74.4538 61.1479 74.7207L64.7079 72.8967C64.2502 72.0035 63.5858 71.2692 62.7242 70.743L60.6393 74.1567ZM61.1524 74.7293C61.2855 74.9861 61.379 75.3266 61.379 75.8014H65.379C65.379 74.7794 65.1718 73.7915 64.7034 72.8881L61.1524 74.7293ZM61.379 75.8014V75.9464H65.379V75.8014H61.379ZM61.379 75.9464C61.379 76.4239 61.2865 76.7614 61.1588 77.0108L64.7185 78.8351C65.1779 77.9386 65.379 76.9585 65.379 75.9464H61.379ZM61.1542 77.0197C61.0205 77.2839 60.8553 77.4569 60.6472 77.5855L62.7486 80.989C63.6075 80.4586 64.2695 79.7222 64.723 78.8262L61.1542 77.0197ZM60.642 77.5886C60.4657 77.6982 60.2264 77.7813 59.8556 77.7813V81.7813C60.8813 81.7813 61.8702 81.535 62.7538 80.9858L60.642 77.5886ZM59.775 71.1642H58.8136V75.1642H59.775V71.1642ZM56.8136 73.1642V78.5836H60.8136V73.1642H56.8136ZM58.8136 80.5836H59.775V76.5836H58.8136V80.5836ZM59.775 80.5836C60.5783 80.5836 61.3948 80.3654 62.0974 79.8237L59.6549 76.656C59.6984 76.6224 59.7451 76.6 59.7819 76.5885C59.8156 76.578 59.8184 76.5836 59.775 76.5836V80.5836ZM62.0761 79.8398C62.7109 79.3638 63.1484 78.7346 63.4229 78.0423L59.7044 76.5683C59.6822 76.6242 59.6655 76.6479 59.6625 76.6519C59.6609 76.6541 59.6615 76.653 59.6646 76.6499C59.6677 76.6467 59.6717 76.6431 59.6761 76.6398L62.0761 79.8398ZM63.4171 78.0567C63.6912 77.3806 63.8053 76.6655 63.8053 75.9464H59.8053C59.8053 76.2442 59.7583 76.435 59.7101 76.5539L63.4171 78.0567ZM63.8053 75.9464V75.796H59.8053V75.9464H63.8053ZM63.8053 75.796C63.8053 75.0798 63.695 74.3685 63.4305 73.6951L59.7075 75.1577C59.758 75.2864 59.8053 75.4881 59.8053 75.796H63.8053ZM63.4201 73.6691C63.1397 72.9838 62.6988 72.362 62.0638 71.8934L59.6884 75.1117C59.6776 75.1037 59.6727 75.0971 59.6749 75.1C59.6781 75.1042 59.6951 75.128 59.7179 75.1836L63.4201 73.6691ZM62.0761 71.9025C61.378 71.3789 60.5724 71.1642 59.775 71.1642V75.1642C59.8177 75.1642 59.8172 75.1696 59.7877 75.1605C59.7734 75.1561 59.7549 75.1491 59.7341 75.1385C59.7133 75.128 59.6936 75.1157 59.6761 75.1025L62.0761 71.9025ZM65.0871 78.7662L66.5959 77.4535L66.589 77.4454L66.5819 77.4375L65.0871 78.7662ZM64.362 77.5147L62.4731 78.1723L62.4747 78.1767L64.362 77.5147ZM64.362 74.2384L66.2492 74.9003L66.2508 74.896L64.362 74.2384ZM70.9415 74.2384L69.0527 74.896L69.0557 74.9044L69.0587 74.9128L70.9415 74.2384ZM70.9415 77.5147L69.0571 76.8447L69.0543 76.8528L70.9415 77.5147ZM70.2164 78.7662L68.7216 77.4375L68.715 77.445L70.2164 78.7662ZM69.0885 79.5987L68.2665 77.7754L68.2609 77.778L69.0885 79.5987ZM69.4108 77.3697L67.5322 76.6836L67.5295 76.6908L67.5269 76.6981L69.4108 77.3697ZM69.4108 74.3727L71.2894 73.6865L71.2875 73.6812L69.4108 74.3727ZM68.7394 73.4166L67.5088 74.9933L67.5181 75.0004L68.7394 73.4166ZM66.548 73.4112L65.3201 71.8325L65.3141 71.8372L65.3081 71.842L66.548 73.4112ZM65.8927 74.3673L64.0107 73.6904L64.0081 73.6978L64.0055 73.7051L65.8927 74.3673ZM65.8981 77.3697L64.0106 78.0312L64.0142 78.0414L65.8981 77.3697ZM66.5534 78.3312L65.3134 79.9004L66.5534 78.3312ZM67.6437 77.8941C67.3723 77.8941 67.1788 77.8448 67.0318 77.778L65.3766 81.4195C66.0962 81.7465 66.8623 81.8941 67.6437 81.8941V77.8941ZM67.0318 77.778C66.8587 77.6993 66.7188 77.5948 66.5959 77.4535L63.5782 80.0789C64.0783 80.6538 64.6832 81.1043 65.3766 81.4195L67.0318 77.778ZM66.5819 77.4375C66.4519 77.2913 66.3376 77.1048 66.2492 76.8528L62.4747 78.1767C62.7229 78.8843 63.092 79.5322 63.5922 80.0949L66.5819 77.4375ZM66.2508 76.8572C66.1643 76.6088 66.1095 76.3058 66.1095 75.9303H62.1095C62.1095 76.7006 62.223 77.4539 62.4732 78.1723L66.2508 76.8572ZM66.1095 75.9303V75.8121H62.1095V75.9303H66.1095ZM66.1095 75.8121C66.1095 75.4415 66.1639 75.1436 66.2492 74.9003L62.4747 73.5764C62.2234 74.2928 62.1095 75.0441 62.1095 75.8121H66.1095ZM66.2508 74.896C66.3419 74.6341 66.459 74.4402 66.5906 74.2889L63.5728 71.6634C63.0813 72.2283 62.7186 72.8758 62.4732 73.5808L66.2508 74.896ZM66.5906 74.2889C66.7135 74.1476 66.8533 74.0431 67.0265 73.9644L65.3713 70.3229C64.6779 70.6381 64.0729 71.0886 63.5728 71.6634L66.5906 74.2889ZM67.0265 73.9644C67.1734 73.8976 67.367 73.8482 67.6383 73.8482V69.8482C66.8569 69.8482 66.0908 69.9958 65.3713 70.3229L67.0265 73.9644ZM67.6383 73.8482C67.9151 73.8482 68.1143 73.8983 68.2665 73.9669L69.9105 70.3204C69.1891 69.9951 68.4215 69.8482 67.6383 69.8482V73.8482ZM68.2665 73.9669C68.445 74.0474 68.589 74.1542 68.715 74.2974L71.7179 71.6549C71.2137 71.082 70.6057 70.6338 69.9105 70.3204L68.2665 73.9669ZM68.715 74.2974C68.8471 74.4476 68.9632 74.6387 69.0527 74.896L72.8304 73.5808C72.5833 72.8712 72.216 72.2209 71.7179 71.6549L68.715 74.2974ZM69.0587 74.9128C69.1445 75.1524 69.1994 75.4459 69.1994 75.8121H73.1994C73.1994 75.0396 73.0823 74.284 72.8244 73.5639L69.0587 74.9128ZM69.1994 75.8121V75.9303H73.1994V75.8121H69.1994ZM69.1994 75.9303C69.1994 76.3013 69.1441 76.6 69.0571 76.8447L72.826 78.1848C73.0827 77.4627 73.1994 76.705 73.1994 75.9303H69.1994ZM69.0543 76.8528C68.9659 77.1048 68.8516 77.2913 68.7216 77.4375L71.7113 80.0949C72.2115 79.5322 72.5806 78.8843 72.8288 78.1767L69.0543 76.8528ZM68.715 77.445C68.589 77.5882 68.445 77.695 68.2665 77.7754L69.9105 81.422C70.6057 81.1086 71.2137 80.6604 71.7179 80.0875L68.715 77.445ZM68.2609 77.778C68.1157 77.844 67.9207 77.8941 67.6437 77.8941V81.8941C68.4266 81.8941 69.1948 81.7473 69.9161 81.4195L68.2609 77.778ZM67.6437 80.6749C68.4449 80.6749 69.2715 80.4613 69.9807 79.9078L67.5196 76.7545C67.5703 76.7149 67.6222 76.6907 67.6599 76.679C67.6939 76.6685 67.694 76.6749 67.6437 76.6749V80.6749ZM69.9807 79.9078C70.6223 79.407 71.0429 78.7475 71.2946 78.0414L67.5269 76.6981C67.5046 76.7607 67.4878 76.7853 67.4872 76.7863C67.4868 76.7868 67.4894 76.783 67.4956 76.7763C67.5019 76.7696 67.51 76.762 67.5196 76.7545L69.9807 79.9078ZM71.2894 78.0558C71.5373 77.3771 71.6364 76.6561 71.6364 75.9303H67.6364C67.6364 76.3002 67.585 76.5388 67.5322 76.6836L71.2894 78.0558ZM71.6364 75.9303V75.8014H67.6364V75.9303H71.6364ZM71.6364 75.8014C71.6364 75.0793 71.5364 74.3627 71.2894 73.6865L67.5322 75.0588C67.586 75.2062 67.6364 75.4421 67.6364 75.8014H71.6364ZM71.2875 73.6812C71.0281 72.9771 70.6009 72.3265 69.9607 71.8328L67.5181 75.0004C67.5107 74.9947 67.5042 74.9888 67.4992 74.9835C67.4943 74.9783 67.4925 74.9756 67.4934 74.9769C67.495 74.9792 67.5118 75.0037 67.5341 75.0641L71.2875 73.6812ZM69.9699 71.84C69.2636 71.2886 68.4402 71.0729 67.6383 71.0729V75.0729C67.6852 75.0729 67.683 75.0789 67.6479 75.0679C67.6092 75.0558 67.558 75.0316 67.5089 74.9932L69.9699 71.84ZM67.6383 71.0729C66.8438 71.0729 66.0242 71.2849 65.3201 71.8325L67.7759 74.9899C67.7241 75.0302 67.6708 75.0552 67.6309 75.0676C67.5947 75.0788 67.5918 75.0729 67.6383 75.0729V71.0729ZM65.3081 71.842C64.6772 72.3405 64.2617 72.9925 64.0107 73.6904L67.7747 75.0441C67.7973 74.9813 67.8146 74.9554 67.8163 74.9528C67.8173 74.9514 67.8153 74.9545 67.8098 74.9604C67.8043 74.9664 67.7969 74.9734 67.7879 74.9805L65.3081 71.842ZM64.0055 73.7051C63.7708 74.3742 63.6779 75.0853 63.6779 75.8014H67.6779C67.6779 75.4217 67.7282 75.1768 67.7799 75.0295L64.0055 73.7051ZM63.6779 75.8014V75.9303H67.6779V75.8014H63.6779ZM63.6779 75.9303C63.6779 76.6488 63.7751 77.3591 64.0106 78.0311L67.7856 76.7083C67.7275 76.5425 67.6779 76.2932 67.6779 75.9303H63.6779ZM64.0142 78.0414C64.2638 78.7414 64.6786 79.3988 65.3134 79.9004L67.7933 76.7619C67.8032 76.7698 67.8114 76.7775 67.8174 76.784C67.8234 76.7904 67.8256 76.7939 67.8247 76.7925C67.8229 76.79 67.8052 76.7632 67.7819 76.6981L64.0142 78.0414ZM65.3134 79.9004C66.018 80.4571 66.8419 80.6749 67.6437 80.6749V76.6749C67.6 76.6749 67.6059 76.6692 67.6448 76.6815C67.6874 76.695 67.7418 76.7212 67.7933 76.7619L65.3134 79.9004ZM75.0665 78.8414H77.0665V77.1367L75.3834 76.8667L75.0665 78.8414ZM75.0665 79.7813V81.7813H77.0665V79.7813H75.0665ZM71.8278 79.7813H69.8278V81.7813H71.8278V79.7813ZM71.8278 78.8414L71.4477 76.8778L69.8278 77.1914V78.8414H71.8278ZM72.6603 78.6803L73.0403 80.6438L74.6603 80.3303V78.6803H72.6603ZM72.6603 73.0675H74.6603V71.4175L73.0403 71.1039L72.6603 73.0675ZM71.8278 72.9063H69.8278V74.5564L71.4477 74.8699L71.8278 72.9063ZM71.8278 71.961V69.961H69.8278V71.961H71.8278ZM74.2501 71.961L75.9441 70.8977L75.3561 69.961H74.2501V71.961ZM77.6554 77.3858L75.9615 78.4492L76.6699 79.5777L77.9842 79.3586L77.6554 77.3858ZM77.6876 77.3805L78.0164 79.3533L79.6876 79.0747V77.3805H77.6876ZM77.6876 73.0675H79.6876V71.3642L78.0061 71.093L77.6876 73.0675ZM76.6886 72.9063H74.6886V74.6096L76.3702 74.8808L76.6886 72.9063ZM76.6886 71.961V69.961H74.6886V71.961H76.6886ZM79.9274 71.961H81.9274V69.961H79.9274V71.961ZM79.9274 72.9063L80.3051 74.8704L81.9274 74.5584V72.9063H79.9274ZM79.0895 73.0675L78.7118 71.1035L77.0895 71.4155V73.0675H79.0895ZM79.0895 79.7813V81.7813H81.0895V79.7813H79.0895ZM77.5748 79.7813L75.8964 80.869L76.4877 81.7813H77.5748V79.7813ZM74.0944 74.4103L75.7728 73.3226L75.0595 72.2218L73.7656 72.4375L74.0944 74.4103ZM74.0622 74.4156L73.7334 72.4428L72.0622 72.7214V74.4156H74.0622ZM74.0622 78.6803H72.0622V80.385L73.7453 80.655L74.0622 78.6803ZM73.0665 78.8414V79.7813H77.0665V78.8414H73.0665ZM75.0665 77.7813H71.8278V81.7813H75.0665V77.7813ZM73.8278 79.7813V78.8414H69.8278V79.7813H73.8278ZM72.2078 80.805L73.0403 80.6438L72.2803 76.7167L71.4477 76.8778L72.2078 80.805ZM74.6603 78.6803V73.0675H70.6603V78.6803H74.6603ZM73.0403 71.1039L72.2078 70.9428L71.4477 74.8699L72.2803 75.031L73.0403 71.1039ZM73.8278 72.9063V71.961H69.8278V72.9063H73.8278ZM71.8278 73.961H74.2501V69.961H71.8278V73.961ZM72.5562 73.0243L75.9615 78.4492L79.3493 76.3225L75.9441 70.8977L72.5562 73.0243ZM77.9842 79.3586L78.0164 79.3533L77.3588 75.4077L77.3266 75.4131L77.9842 79.3586ZM79.6876 77.3805V73.0675H75.6876V77.3805H79.6876ZM78.0061 71.093L77.0071 70.9319L76.3702 74.8808L77.3692 75.042L78.0061 71.093ZM78.6886 72.9063V71.961H74.6886V72.9063H78.6886ZM76.6886 73.961H79.9274V69.961H76.6886V73.961ZM77.9274 71.961V72.9063H81.9274V71.961H77.9274ZM79.5497 70.9423L78.7118 71.1035L79.4672 75.0315L80.3051 74.8704L79.5497 70.9423ZM77.0895 73.0675V79.7813H81.0895V73.0675H77.0895ZM79.0895 77.7813H77.5748V81.7813H79.0895V77.7813ZM79.2533 78.6937L75.7728 73.3226L72.416 75.4979L75.8964 80.869L79.2533 78.6937ZM73.7656 72.4375L73.7334 72.4428L74.391 76.3884L74.4232 76.383L73.7656 72.4375ZM72.0622 74.4156V78.6803H76.0622V74.4156H72.0622ZM73.7453 80.655L74.7497 80.8162L75.3834 76.8667L74.379 76.7055L73.7453 80.655ZM86.6305 77.6437H88.6305V75.6437H86.6305V77.6437ZM86.6305 79.7813V81.7813H88.6305V79.7813H86.6305ZM80.443 79.7813H78.443V81.7813H80.443V79.7813ZM80.443 78.8414L80.063 76.8778L78.443 77.1914V78.8414H80.443ZM81.2755 78.6803L81.6556 80.6438L83.2755 80.3303V78.6803H81.2755ZM81.2755 73.0675H83.2755V71.4175L81.6556 71.1039L81.2755 73.0675ZM80.443 72.9063H78.443V74.5564L80.063 74.8699L80.443 72.9063ZM80.443 71.961V69.961H78.443V71.961H80.443ZM86.5123 71.961H88.5123V69.961H86.5123V71.961ZM86.5123 74.0719V76.0719H88.5123V74.0719H86.5123ZM85.3092 74.0719L83.3152 74.2262L83.458 76.0719H85.3092V74.0719ZM85.2394 73.1695L87.2334 73.0152L87.0906 71.1695H85.2394V73.1695ZM82.8439 73.1695V71.1695H80.8439V73.1695H82.8439ZM82.8439 75.1354H80.8439V77.1354H82.8439V75.1354ZM85.4918 75.1354H87.4918V73.1354H85.4918V75.1354ZM85.4918 76.3438V78.3438H87.4918V76.3438H85.4918ZM82.8439 76.3438V74.3438H80.8439V76.3438H82.8439ZM82.8439 78.5782H80.8439V80.5782H82.8439V78.5782ZM85.3683 78.5782V80.5782H87.2245L87.3627 78.7272L85.3683 78.5782ZM85.4381 77.6437V75.6437H83.582L83.4437 77.4946L85.4381 77.6437ZM84.6305 77.6437V79.7813H88.6305V77.6437H84.6305ZM86.6305 77.7813H80.443V81.7813H86.6305V77.7813ZM82.443 79.7813V78.8414H78.443V79.7813H82.443ZM80.8231 80.805L81.6556 80.6438L80.8955 76.7167L80.063 76.8778L80.8231 80.805ZM83.2755 78.6803V73.0675H79.2755V78.6803H83.2755ZM81.6556 71.1039L80.8231 70.9428L80.063 74.8699L80.8955 75.031L81.6556 71.1039ZM82.443 72.9063V71.961H78.443V72.9063H82.443ZM80.443 73.961H86.5123V69.961H80.443V73.961ZM84.5123 71.961V74.0719H88.5123V71.961H84.5123ZM86.5123 72.0719H85.3092V76.0719H86.5123V72.0719ZM87.3033 73.9176L87.2334 73.0152L83.2454 73.3238L83.3152 74.2262L87.3033 73.9176ZM85.2394 71.1695H82.8439V75.1695H85.2394V71.1695ZM80.8439 73.1695V75.1354H84.8439V73.1695H80.8439ZM82.8439 77.1354H85.4918V73.1354H82.8439V77.1354ZM83.4918 75.1354V76.3438H87.4918V75.1354H83.4918ZM85.4918 74.3438H82.8439V78.3438H85.4918V74.3438ZM80.8439 76.3438V78.5782H84.8439V76.3438H80.8439ZM82.8439 80.5782H85.3683V76.5782H82.8439V80.5782ZM87.3627 78.7272L87.4326 77.7927L83.4437 77.4946L83.3739 78.4292L87.3627 78.7272ZM85.4381 79.6437H86.6305V75.6437H85.4381V79.6437Z" fill="#150E0B" mask="url(#path-9-outside-1_18_33)"/>
</svg>
